<svg width="50" height="65" fill="none" xmlns="http://www.w3.org/2000/svg"><path d="M17.577 0.182343C15.7616 0.70282 14.1113 2.01037 13.0958 3.74953C12.5118 4.73971 11.7121 5.53947 10.9123 5.95839C10.6203 6.09803 9.84595 6.36462 9.17313 6.52965C7.47205 6.97396 6.55804 7.48175 5.49169 8.5481C3.90487 10.1349 3.33361 11.7598 3.44786 14.2607C3.56211 16.6219 3.29552 17.4724 1.88642 19.1608C0.680433 20.5953 0.147259 21.8267 0.0203128 23.4897C-0.132023 25.4573 0.578876 27.5139 1.9372 29.0372C3.25744 30.5225 3.56211 31.4873 3.44786 33.8612C3.39708 35.156 3.42247 35.6384 3.6002 36.2985C4.31109 39.0406 6.48187 41.059 9.31277 41.6303C9.7317 41.7191 10.1379 41.8207 10.2268 41.8715C10.3156 41.9222 8.74152 44.6643 5.75828 49.6279C1.02319 57.4985 0.896241 57.727 1.25169 58.3745C1.31516 58.5014 1.54367 58.6791 1.74678 58.768C2.08954 58.9076 2.49576 58.8061 5.96139 57.8286C8.0687 57.2193 9.79517 56.7369 9.82056 56.7623C9.83325 56.7876 10.2268 58.5395 10.6838 60.6595C11.217 63.1096 11.6105 64.6075 11.7374 64.7472C12.0548 65.1026 12.9307 65.0772 13.2735 64.6964C13.4131 64.5441 15.8886 60.4945 18.7576 55.6832L23.9878 46.962H24.9906H25.9935L31.2237 55.6832C34.0927 60.4945 36.5681 64.5441 36.7078 64.7091C37.0505 65.0772 37.9264 65.1026 38.2438 64.7472C38.3834 64.5948 38.7516 63.1477 39.2975 60.6595C39.7545 58.5395 40.148 56.7876 40.1607 56.7623C40.1734 56.7369 41.8999 57.2193 43.9818 57.8159C47.3332 58.768 47.8282 58.8823 48.1837 58.7553C48.4122 58.6791 48.6661 58.5141 48.7296 58.3872C49.085 57.727 48.9581 57.5112 44.2357 49.6279L39.6148 41.9476L40.2115 41.7699C42.1664 41.2113 42.5981 41.0336 43.2455 40.6147C44.7942 39.6118 45.9241 38.0504 46.3811 36.2985C46.5588 35.6257 46.5842 35.156 46.5207 33.8231C46.4064 31.4873 46.7111 30.5352 48.0187 29.0753C49.7451 27.133 50.3672 24.6957 49.7451 22.2837C49.4405 21.065 49.0469 20.3414 48.0694 19.1354C46.673 17.4343 46.4191 16.5965 46.5334 14.2607C46.6476 11.7598 46.0637 10.1222 44.4896 8.56079C43.4105 7.48175 42.4711 6.97396 40.8208 6.54235C40.148 6.36462 39.3609 6.09803 39.069 5.95839C38.2692 5.53947 37.4694 4.73971 36.8855 3.74953C36.1365 2.46737 34.8797 1.26139 33.7245 0.715515C32.4424 0.106178 31.6172 -0.0588531 30.0558 0.0173111C28.8625 0.0680923 28.6086 0.131561 27.4026 0.626656C26.1839 1.13444 25.9808 1.18522 24.9906 1.18522C24.0004 1.18522 23.7973 1.13444 22.5786 0.626656C21.2965 0.093483 21.1949 0.0680923 19.7224 0.0427017C18.6941 0.0173111 17.9959 0.055397 17.577 0.182343ZM21.9185 2.70857C24.1401 3.59719 25.8412 3.59719 28.05 2.70857C29.9161 1.95959 31.2999 1.9342 32.709 2.6451C33.6737 3.12749 34.3593 3.8257 35.0321 4.95552C36.1619 6.91049 37.6726 7.98953 40.0718 8.59888C42.1918 9.13205 43.2074 9.91912 44.0072 11.6329C44.3372 12.3438 44.3499 12.4453 44.3626 14.5907C44.3753 16.5076 44.4134 16.9265 44.6419 17.6374C44.9973 18.7038 45.4924 19.5416 46.3557 20.5445C47.4855 21.8267 47.9425 23.0961 47.7902 24.5052C47.6759 25.6731 47.2951 26.4983 46.3176 27.6662C44.68 29.6339 44.1976 31.0937 44.3499 33.6454C44.4261 34.8513 44.4007 35.2703 44.223 35.8669C43.6644 37.8092 42.2045 39.104 40.0718 39.5357C37.9137 39.98 36.2635 41.186 34.9813 43.2679C33.8134 45.1721 32.4424 45.9972 30.4493 45.9845C29.4591 45.9845 29.256 45.9464 28.0373 45.426L26.7044 44.8674H24.9906H23.2769L21.9439 45.426C20.7252 45.9464 20.5221 45.9845 19.5319 45.9845C17.5389 45.9972 16.1679 45.1721 15 43.2806C13.7178 41.1987 12.0548 39.98 9.90942 39.5357C7.77672 39.104 6.31684 37.8092 5.75828 35.8669C5.58056 35.2576 5.55517 34.8387 5.63133 33.6454C5.77098 31.1064 5.28858 29.6085 3.66367 27.6662C2.68618 26.4856 2.27995 25.6224 2.1784 24.4798C2.03876 23.0834 2.50846 21.814 3.62558 20.5445C4.48882 19.5416 4.98391 18.7038 5.33936 17.6374C5.56786 16.9265 5.60594 16.5076 5.61864 14.5907L5.63133 12.3692L6.03756 11.5059C6.50726 10.5158 7.42128 9.55097 8.28451 9.13205C8.60188 8.97971 9.41433 8.72582 10.0871 8.56079C12.2579 8.01492 13.8574 6.83432 14.9619 4.94283C15.622 3.813 16.3075 3.12749 17.285 2.6451C18.6814 1.9342 20.0651 1.95959 21.9185 2.70857ZM13.1973 44.55C13.7178 45.464 14.8476 46.6193 15.7109 47.1524C16.9042 47.8633 17.8943 48.1426 19.3669 48.1553C20.0905 48.168 20.6745 48.1807 20.6745 48.1807C20.6745 48.2061 13.045 60.9769 13.0069 61.015C12.9942 61.0276 12.6768 59.6693 12.3214 57.9809C11.5851 54.5915 11.4709 54.3249 10.6838 54.3249C10.3537 54.3249 5.79636 55.5436 4.70463 55.9117C4.61576 55.9498 4.56499 55.9244 4.59038 55.8736C4.61576 55.8229 6.34223 52.9285 8.42415 49.4502L12.2071 43.1028L12.5118 43.4837C12.6768 43.6868 12.9815 44.1692 13.1973 44.55ZM41.5698 49.4629C43.639 52.9412 45.3655 55.8229 45.3909 55.8736C45.4163 55.9244 45.3655 55.9498 45.2766 55.9117C44.1849 55.5436 39.6275 54.3249 39.2975 54.3249C38.5104 54.3249 38.3961 54.5915 37.6599 57.9809C37.3044 59.6693 36.987 61.0276 36.9743 61.015C36.9363 60.9769 29.3068 48.2061 29.3068 48.1807C29.3068 48.1807 29.8908 48.168 30.6143 48.1553C32.0742 48.1426 33.2675 47.8126 34.372 47.1017C35.159 46.5939 36.2635 45.426 36.7332 44.6135C37.1013 43.9661 37.6726 43.1536 37.7614 43.1536C37.7868 43.1536 39.5006 45.9972 41.5698 49.4629Z" fill="#151515"/><path d="M17.577 0.182343C15.7616 0.70282 14.1113 2.01037 13.0958 3.74953C12.5118 4.73971 11.7121 5.53947 10.9123 5.95839C10.6203 6.09803 9.84595 6.36462 9.17313 6.52965C7.47205 6.97396 6.55804 7.48175 5.49169 8.5481C3.90487 10.1349 3.33361 11.7598 3.44786 14.2607C3.56211 16.6219 3.29552 17.4724 1.88642 19.1608C0.680433 20.5953 0.147259 21.8267 0.0203128 23.4897C-0.132023 25.4573 0.578876 27.5139 1.9372 29.0372C3.25744 30.5225 3.56211 31.4873 3.44786 33.8612C3.39708 35.156 3.42247 35.6384 3.6002 36.2985C4.31109 39.0406 6.48187 41.059 9.31277 41.6303C9.7317 41.7191 10.1379 41.8207 10.2268 41.8715C10.3156 41.9222 8.74152 44.6643 5.75828 49.6279C1.02319 57.4985 0.896241 57.727 1.25169 58.3745C1.31516 58.5014 1.54367 58.6791 1.74678 58.768C2.08954 58.9076 2.49576 58.8061 5.96139 57.8286C8.0687 57.2193 9.79517 56.7369 9.82056 56.7623C9.83325 56.7876 10.2268 58.5395 10.6838 60.6595C11.217 63.1096 11.6105 64.6075 11.7374 64.7472C12.0548 65.1026 12.9307 65.0772 13.2735 64.6964C13.4131 64.5441 15.8886 60.4945 18.7576 55.6832L23.9878 46.962H24.9906H25.9935L31.2237 55.6832C34.0927 60.4945 36.5681 64.5441 36.7078 64.7091C37.0505 65.0772 37.9264 65.1026 38.2438 64.7472C38.3834 64.5948 38.7516 63.1477 39.2975 60.6595C39.7545 58.5395 40.148 56.7876 40.1607 56.7623C40.1734 56.7369 41.8999 57.2193 43.9818 57.8159C47.3332 58.768 47.8282 58.8823 48.1837 58.7553C48.4122 58.6791 48.6661 58.5141 48.7296 58.3872C49.085 57.727 48.9581 57.5112 44.2357 49.6279L39.6148 41.9476L40.2115 41.7699C42.1664 41.2113 42.5981 41.0336 43.2455 40.6147C44.7942 39.6118 45.9241 38.0504 46.3811 36.2985C46.5588 35.6257 46.5842 35.156 46.5207 33.8231C46.4064 31.4873 46.7111 30.5352 48.0187 29.0753C49.7451 27.133 50.3672 24.6957 49.7451 22.2837C49.4405 21.065 49.0469 20.3414 48.0694 19.1354C46.673 17.4343 46.4191 16.5965 46.5334 14.2607C46.6476 11.7598 46.0637 10.1222 44.4896 8.56079C43.4105 7.48175 42.4711 6.97396 40.8208 6.54235C40.148 6.36462 39.3609 6.09803 39.069 5.95839C38.2692 5.53947 37.4694 4.73971 36.8855 3.74953C36.1365 2.46737 34.8797 1.26139 33.7245 0.715515C32.4424 0.106178 31.6172 -0.0588531 30.0558 0.0173111C28.8625 0.0680923 28.6086 0.131561 27.4026 0.626656C26.1839 1.13444 25.9808 1.18522 24.9906 1.18522C24.0004 1.18522 23.7973 1.13444 22.5786 0.626656C21.2965 0.093483 21.1949 0.0680923 19.7224 0.0427017C18.6941 0.0173111 17.9959 0.055397 17.577 0.182343ZM21.9185 2.70857C24.1401 3.59719 25.8412 3.59719 28.05 2.70857C29.9161 1.95959 31.2999 1.9342 32.709 2.6451C33.6737 3.12749 34.3593 3.8257 35.0321 4.95552C36.1619 6.91049 37.6726 7.98953 40.0718 8.59888C42.1918 9.13205 43.2074 9.91912 44.0072 11.6329C44.3372 12.3438 44.3499 12.4453 44.3626 14.5907C44.3753 16.5076 44.4134 16.9265 44.6419 17.6374C44.9973 18.7038 45.4924 19.5416 46.3557 20.5445C47.4855 21.8267 47.9425 23.0961 47.7902 24.5052C47.6759 25.6731 47.2951 26.4983 46.3176 27.6662C44.68 29.6339 44.1976 31.0937 44.3499 33.6454C44.4261 34.8513 44.4007 35.2703 44.223 35.8669C43.6644 37.8092 42.2045 39.104 40.0718 39.5357C37.9137 39.98 36.2635 41.186 34.9813 43.2679C33.8134 45.1721 32.4424 45.9972 30.4493 45.9845C29.4591 45.9845 29.256 45.9464 28.0373 45.426L26.7044 44.8674H24.9906H23.2769L21.9439 45.426C20.7252 45.9464 20.5221 45.9845 19.5319 45.9845C17.5389 45.9972 16.1679 45.1721 15 43.2806C13.7178 41.1987 12.0548 39.98 9.90942 39.5357C7.77672 39.104 6.31684 37.8092 5.75828 35.8669C5.58056 35.2576 5.55517 34.8387 5.63133 33.6454C5.77098 31.1064 5.28858 29.6085 3.66367 27.6662C2.68618 26.4856 2.27995 25.6224 2.1784 24.4798C2.03876 23.0834 2.50846 21.814 3.62558 20.5445C4.48882 19.5416 4.98391 18.7038 5.33936 17.6374C5.56786 16.9265 5.60594 16.5076 5.61864 14.5907L5.63133 12.3692L6.03756 11.5059C6.50726 10.5158 7.42128 9.55097 8.28451 9.13205C8.60188 8.97971 9.41433 8.72582 10.0871 8.56079C12.2579 8.01492 13.8574 6.83432 14.9619 4.94283C15.622 3.813 16.3075 3.12749 17.285 2.6451C18.6814 1.9342 20.0651 1.95959 21.9185 2.70857ZM13.1973 44.55C13.7178 45.464 14.8476 46.6193 15.7109 47.1524C16.9042 47.8633 17.8943 48.1426 19.3669 48.1553C20.0905 48.168 20.6745 48.1807 20.6745 48.1807C20.6745 48.2061 13.045 60.9769 13.0069 61.015C12.9942 61.0276 12.6768 59.6693 12.3214 57.9809C11.5851 54.5915 11.4709 54.3249 10.6838 54.3249C10.3537 54.3249 5.79636 55.5436 4.70463 55.9117C4.61576 55.9498 4.56499 55.9244 4.59038 55.8736C4.61576 55.8229 6.34223 52.9285 8.42415 49.4502L12.2071 43.1028L12.5118 43.4837C12.6768 43.6868 12.9815 44.1692 13.1973 44.55ZM41.5698 49.4629C43.639 52.9412 45.3655 55.8229 45.3909 55.8736C45.4163 55.9244 45.3655 55.9498 45.2766 55.9117C44.1849 55.5436 39.6275 54.3249 39.2975 54.3249C38.5104 54.3249 38.3961 54.5915 37.6599 57.9809C37.3044 59.6693 36.987 61.0276 36.9743 61.015C36.9363 60.9769 29.3068 48.2061 29.3068 48.1807C29.3068 48.1807 29.8908 48.168 30.6143 48.1553C32.0742 48.1426 33.2675 47.8126 34.372 47.1017C35.159 46.5939 36.2635 45.426 36.7332 44.6135C37.1013 43.9661 37.6726 43.1536 37.7614 43.1536C37.7868 43.1536 39.5006 45.9972 41.5698 49.4629Z" fill="url(#paint0_linear_97_7290)"/><path d="M23.4668 9.14464C17.6527 9.72859 12.6256 13.7401 10.7722 19.2623C9.49001 23.1087 9.80738 27.3233 11.6735 30.9667C13.73 34.9655 17.3861 37.7583 21.9688 38.7993C23.2637 39.0912 26.7166 39.0912 28.0115 38.7993C30.2584 38.2788 32.1753 37.4282 33.8764 36.1715C37.05 33.8103 39.1319 30.3954 39.7921 26.5109C40.0967 24.6955 39.9825 22.1058 39.5382 20.3921C38.2814 15.5681 34.8285 11.7216 30.1442 9.9571C28.3415 9.27159 25.5233 8.92883 23.4668 9.14464ZM27.5291 11.4804C29.5729 11.9121 31.8071 13.0165 33.4448 14.4256C35.1585 15.8855 36.8342 18.6021 37.4563 20.9379C37.8244 22.347 37.8625 25.5715 37.5197 26.9552C36.2376 32.0584 32.1753 35.8414 27.034 36.7427C21.423 37.7329 15.5326 34.5085 13.2349 29.1894C12.4098 27.2979 12.2447 26.4474 12.2447 24.1116C12.2447 21.6234 12.4479 20.6206 13.4253 18.5894C15.977 13.2323 21.8165 10.2999 27.5291 11.4804Z" fill="#151515"/><path d="M23.4668 9.14464C17.6527 9.72859 12.6256 13.7401 10.7722 19.2623C9.49001 23.1087 9.80738 27.3233 11.6735 30.9667C13.73 34.9655 17.3861 37.7583 21.9688 38.7993C23.2637 39.0912 26.7166 39.0912 28.0115 38.7993C30.2584 38.2788 32.1753 37.4282 33.8764 36.1715C37.05 33.8103 39.1319 30.3954 39.7921 26.5109C40.0967 24.6955 39.9825 22.1058 39.5382 20.3921C38.2814 15.5681 34.8285 11.7216 30.1442 9.9571C28.3415 9.27159 25.5233 8.92883 23.4668 9.14464ZM27.5291 11.4804C29.5729 11.9121 31.8071 13.0165 33.4448 14.4256C35.1585 15.8855 36.8342 18.6021 37.4563 20.9379C37.8244 22.347 37.8625 25.5715 37.5197 26.9552C36.2376 32.0584 32.1753 35.8414 27.034 36.7427C21.423 37.7329 15.5326 34.5085 13.2349 29.1894C12.4098 27.2979 12.2447 26.4474 12.2447 24.1116C12.2447 21.6234 12.4479 20.6206 13.4253 18.5894C15.977 13.2323 21.8165 10.2999 27.5291 11.4804Z" fill="url(#paint1_linear_97_7290)"/><path d="M29.6869 19.2496C29.5854 19.2876 27.9097 20.8872 25.9801 22.8167L22.4637 26.3205L21.3973 25.2795C20.3056 24.2131 20.039 24.0989 19.4931 24.3909C19.0742 24.6067 18.9092 24.886 18.8965 25.3811C18.8965 25.7746 19.0615 25.9777 20.4579 27.3741C21.8543 28.7705 22.0701 28.9355 22.451 28.9355C22.8572 28.9355 23.2 28.6309 26.983 24.8352C30.8294 21.0014 31.0833 20.7094 31.0833 20.2905C31.0833 19.605 30.2963 19.021 29.6869 19.2496Z" fill="#151515"/><path d="M29.6869 19.2496C29.5854 19.2876 27.9097 20.8872 25.9801 22.8167L22.4637 26.3205L21.3973 25.2795C20.3056 24.2131 20.039 24.0989 19.4931 24.3909C19.0742 24.6067 18.9092 24.886 18.8965 25.3811C18.8965 25.7746 19.0615 25.9777 20.4579 27.3741C21.8543 28.7705 22.0701 28.9355 22.451 28.9355C22.8572 28.9355 23.2 28.6309 26.983 24.8352C30.8294 21.0014 31.0833 20.7094 31.0833 20.2905C31.0833 19.605 30.2963 19.021 29.6869 19.2496Z" fill="url(#paint2_linear_97_7290)"/><defs><linearGradient id="paint0_linear_97_7290" x1="4.42046" y1="52.5825" x2="50.642" y2="22.61" gradientUnits="userSpaceOnUse"><stop stop-color="#8A5C2A"/><stop offset="0.514222" stop-color="#C2A650" stop-opacity="0.81"/><stop offset="0.619294" stop-color="#D1BA5A" stop-opacity="0.92"/><stop offset="0.697308" stop-color="#C8AD53" stop-opacity="0.86"/><stop offset="1" stop-color="#A37C36"/></linearGradient><linearGradient id="paint1_linear_97_7290" x1="12.6482" y1="33.299" x2="35.6346" y2="13.8967" gradientUnits="userSpaceOnUse"><stop stop-color="#8A5C2A"/><stop offset="0.514222" stop-color="#C2A650" stop-opacity="0.81"/><stop offset="0.619294" stop-color="#D1BA5A" stop-opacity="0.92"/><stop offset="0.697308" stop-color="#C8AD53" stop-opacity="0.86"/><stop offset="1" stop-color="#A37C36"/></linearGradient><linearGradient id="paint2_linear_97_7290" x1="19.9743" y1="27.0755" x2="27.5466" y2="19.0826" gradientUnits="userSpaceOnUse"><stop stop-color="#8A5C2A"/><stop offset="0.514222" stop-color="#C2A650" stop-opacity="0.81"/><stop offset="0.619294" stop-color="#D1BA5A" stop-opacity="0.92"/><stop offset="0.697308" stop-color="#C8AD53" stop-opacity="0.86"/><stop offset="1" stop-color="#A37C36"/></linearGradient></defs></svg>