<svg width="64" height="64" fill="none" xmlns="http://www.w3.org/2000/svg"><path d="M30.5267 0.324982C30.1642 0.499969 29.7143 0.849945 29.5018 1.09993C28.8643 1.87488 28.7518 2.43734 28.7518 4.74968C28.7518 6.38707 28.7143 6.87454 28.5643 7.08702C28.4643 7.23701 27.9644 7.51199 27.4769 7.69948C26.9769 7.88697 26.227 8.19945 25.8145 8.39943C24.5896 8.97439 24.5521 8.96189 22.8147 7.24951C21.0523 5.52463 20.5274 5.21215 19.3025 5.21215C18.74 5.21215 18.365 5.29964 17.9776 5.48713C17.6526 5.66212 16.3652 6.83704 14.7903 8.41193C11.728 11.4617 11.5655 11.7117 11.653 13.1866C11.6905 13.6741 11.8155 14.249 11.9405 14.4865C12.2405 15.0865 15.8027 18.6862 16.3152 18.9362C17.1026 19.2987 17.9026 18.7987 17.9026 17.9363C17.9026 17.5113 17.7526 17.3238 15.8902 15.4365C14.1028 13.6366 13.8778 13.3616 13.8778 12.9866C13.8778 12.6241 14.1403 12.3117 16.4027 10.0368C18.7025 7.72448 18.965 7.4995 19.3525 7.4995C19.7399 7.4995 19.9649 7.67448 21.3148 8.99939C23.0647 10.7118 23.5397 10.9868 24.7396 10.9993C25.4021 10.9993 25.7395 10.9118 26.802 10.4618C27.4894 10.1618 28.4018 9.77434 28.8143 9.61185C29.2643 9.43686 29.7768 9.11189 30.0892 8.7994C30.8517 8.02446 31.0017 7.3995 31.0017 4.91217C31.0017 2.89981 31.0017 2.86231 31.3141 2.56233L31.6141 2.24986H35.2264C38.7386 2.24986 38.8386 2.26235 39.0761 2.51234C39.2886 2.74982 39.3261 3.0498 39.3761 5.11216C39.4386 7.387 39.4511 7.4495 39.8011 8.09945C40.276 8.94939 40.7385 9.28687 42.3509 9.93683C43.0883 10.2368 43.9383 10.5868 44.2508 10.7368C45.0132 11.0868 46.2381 11.0868 47.0006 10.7368C47.3631 10.5743 48.113 9.93683 49.0754 8.98689C50.4128 7.67448 50.6378 7.4995 51.0128 7.4995C51.4003 7.4995 51.6628 7.72448 53.9751 10.0368C56.2624 12.3367 56.4999 12.5991 56.4999 12.9866C56.4999 13.3616 56.3249 13.5866 55.0125 14.924C54.0626 15.8864 53.4251 16.6364 53.2626 16.9988C52.9127 17.7613 52.9127 18.9862 53.2626 19.7487C53.4126 20.0611 53.7626 20.9111 54.0626 21.6485C54.7126 23.2609 55.05 23.7234 55.9 24.1984C56.5499 24.5483 56.6124 24.5608 58.8873 24.6233C60.9496 24.6733 61.2496 24.7108 61.4871 24.9233C61.7371 25.1608 61.7496 25.2608 61.7496 28.773V32.3853L61.4371 32.6853C61.1371 32.9977 61.0996 32.9977 59.0873 32.9977C56.5999 32.9977 55.975 33.1477 55.2 33.9102C54.8875 34.2227 54.5626 34.7351 54.3876 35.1851C54.2251 35.5976 53.8376 36.51 53.5376 37.1975C53.0877 38.2599 53.0002 38.5974 53.0002 39.2598C53.0127 40.4597 53.2876 40.9347 55 42.6846C56.3249 44.0345 56.4999 44.2595 56.4999 44.647C56.4999 45.0344 56.2749 45.2969 53.9626 47.5967C51.6878 49.8591 51.3753 50.1216 51.0128 50.1216C50.6378 50.1216 50.3628 49.8966 48.5505 48.0967C46.7131 46.2843 46.4506 46.0719 46.0756 46.0719C45.1632 46.0719 44.6257 46.9093 45.0382 47.6967C45.3007 48.1967 48.9754 51.784 49.5129 52.0589C49.7504 52.1839 50.3254 52.3089 50.8128 52.3464C52.3002 52.4339 52.5377 52.2839 55.6625 49.1466C58.6123 46.1843 58.7748 45.9344 58.7748 44.6719C58.7873 43.4845 58.4623 42.9346 56.7499 41.1847C55.0375 39.4473 55.025 39.4098 55.6 38.1849C55.8 37.7724 56.1125 37.0225 56.2999 36.5225C56.4874 36.035 56.7624 35.5351 56.9124 35.4351C57.1249 35.2851 57.6124 35.2476 59.2497 35.2476C61.5621 35.2476 62.1245 35.1351 62.8995 34.4976C63.1495 34.2852 63.4995 33.8352 63.6744 33.4727L63.9994 32.8228V28.823C63.9994 25.0608 63.9744 24.7733 63.7369 24.2483C63.3995 23.4984 62.937 23.0234 62.187 22.6735C61.6121 22.3985 61.3996 22.3735 59.5247 22.3735C56.7249 22.3735 56.8499 22.436 56.0125 20.4236C55 17.9863 54.95 18.2738 56.7374 16.4489C58.4748 14.674 58.7998 14.124 58.7873 12.9241C58.7748 11.6367 58.5623 11.3367 55.575 8.37444C52.6002 5.42464 52.3127 5.21215 51.0628 5.21215C49.8629 5.21215 49.3254 5.52463 47.563 7.26201C45.7382 9.04939 46.0256 8.99939 43.5758 7.98696C41.5634 7.14952 41.6259 7.27451 41.6259 4.4747C41.6259 2.69982 41.5884 2.36235 41.3635 1.87488C41.026 1.12493 40.5635 0.64996 39.8136 0.299984C39.2011 0.0125046 39.1386 3.8147e-06 35.1764 3.8147e-06H31.1767L30.5267 0.324982Z" fill="#151515"/><path d="M30.5267 0.324982C30.1642 0.499969 29.7143 0.849945 29.5018 1.09993C28.8643 1.87488 28.7518 2.43734 28.7518 4.74968C28.7518 6.38707 28.7143 6.87454 28.5643 7.08702C28.4643 7.23701 27.9644 7.51199 27.4769 7.69948C26.9769 7.88697 26.227 8.19945 25.8145 8.39943C24.5896 8.97439 24.5521 8.96189 22.8147 7.24951C21.0523 5.52463 20.5274 5.21215 19.3025 5.21215C18.74 5.21215 18.365 5.29964 17.9776 5.48713C17.6526 5.66212 16.3652 6.83704 14.7903 8.41193C11.728 11.4617 11.5655 11.7117 11.653 13.1866C11.6905 13.6741 11.8155 14.249 11.9405 14.4865C12.2405 15.0865 15.8027 18.6862 16.3152 18.9362C17.1026 19.2987 17.9026 18.7987 17.9026 17.9363C17.9026 17.5113 17.7526 17.3238 15.8902 15.4365C14.1028 13.6366 13.8778 13.3616 13.8778 12.9866C13.8778 12.6241 14.1403 12.3117 16.4027 10.0368C18.7025 7.72448 18.965 7.4995 19.3525 7.4995C19.7399 7.4995 19.9649 7.67448 21.3148 8.99939C23.0647 10.7118 23.5397 10.9868 24.7396 10.9993C25.4021 10.9993 25.7395 10.9118 26.802 10.4618C27.4894 10.1618 28.4018 9.77434 28.8143 9.61185C29.2643 9.43686 29.7768 9.11189 30.0892 8.7994C30.8517 8.02446 31.0017 7.3995 31.0017 4.91217C31.0017 2.89981 31.0017 2.86231 31.3141 2.56233L31.6141 2.24986H35.2264C38.7386 2.24986 38.8386 2.26235 39.0761 2.51234C39.2886 2.74982 39.3261 3.0498 39.3761 5.11216C39.4386 7.387 39.4511 7.4495 39.8011 8.09945C40.276 8.94939 40.7385 9.28687 42.3509 9.93683C43.0883 10.2368 43.9383 10.5868 44.2508 10.7368C45.0132 11.0868 46.2381 11.0868 47.0006 10.7368C47.3631 10.5743 48.113 9.93683 49.0754 8.98689C50.4128 7.67448 50.6378 7.4995 51.0128 7.4995C51.4003 7.4995 51.6628 7.72448 53.9751 10.0368C56.2624 12.3367 56.4999 12.5991 56.4999 12.9866C56.4999 13.3616 56.3249 13.5866 55.0125 14.924C54.0626 15.8864 53.4251 16.6364 53.2626 16.9988C52.9127 17.7613 52.9127 18.9862 53.2626 19.7487C53.4126 20.0611 53.7626 20.9111 54.0626 21.6485C54.7126 23.2609 55.05 23.7234 55.9 24.1984C56.5499 24.5483 56.6124 24.5608 58.8873 24.6233C60.9496 24.6733 61.2496 24.7108 61.4871 24.9233C61.7371 25.1608 61.7496 25.2608 61.7496 28.773V32.3853L61.4371 32.6853C61.1371 32.9977 61.0996 32.9977 59.0873 32.9977C56.5999 32.9977 55.975 33.1477 55.2 33.9102C54.8875 34.2227 54.5626 34.7351 54.3876 35.1851C54.2251 35.5976 53.8376 36.51 53.5376 37.1975C53.0877 38.2599 53.0002 38.5974 53.0002 39.2598C53.0127 40.4597 53.2876 40.9347 55 42.6846C56.3249 44.0345 56.4999 44.2595 56.4999 44.647C56.4999 45.0344 56.2749 45.2969 53.9626 47.5967C51.6878 49.8591 51.3753 50.1216 51.0128 50.1216C50.6378 50.1216 50.3628 49.8966 48.5505 48.0967C46.7131 46.2843 46.4506 46.0719 46.0756 46.0719C45.1632 46.0719 44.6257 46.9093 45.0382 47.6967C45.3007 48.1967 48.9754 51.784 49.5129 52.0589C49.7504 52.1839 50.3254 52.3089 50.8128 52.3464C52.3002 52.4339 52.5377 52.2839 55.6625 49.1466C58.6123 46.1843 58.7748 45.9344 58.7748 44.6719C58.7873 43.4845 58.4623 42.9346 56.7499 41.1847C55.0375 39.4473 55.025 39.4098 55.6 38.1849C55.8 37.7724 56.1125 37.0225 56.2999 36.5225C56.4874 36.035 56.7624 35.5351 56.9124 35.4351C57.1249 35.2851 57.6124 35.2476 59.2497 35.2476C61.5621 35.2476 62.1245 35.1351 62.8995 34.4976C63.1495 34.2852 63.4995 33.8352 63.6744 33.4727L63.9994 32.8228V28.823C63.9994 25.0608 63.9744 24.7733 63.7369 24.2483C63.3995 23.4984 62.937 23.0234 62.187 22.6735C61.6121 22.3985 61.3996 22.3735 59.5247 22.3735C56.7249 22.3735 56.8499 22.436 56.0125 20.4236C55 17.9863 54.95 18.2738 56.7374 16.4489C58.4748 14.674 58.7998 14.124 58.7873 12.9241C58.7748 11.6367 58.5623 11.3367 55.575 8.37444C52.6002 5.42464 52.3127 5.21215 51.0628 5.21215C49.8629 5.21215 49.3254 5.52463 47.563 7.26201C45.7382 9.04939 46.0256 8.99939 43.5758 7.98696C41.5634 7.14952 41.6259 7.27451 41.6259 4.4747C41.6259 2.69982 41.5884 2.36235 41.3635 1.87488C41.026 1.12493 40.5635 0.64996 39.8136 0.299984C39.2011 0.0125046 39.1386 3.8147e-06 35.1764 3.8147e-06H31.1767L30.5267 0.324982Z" fill="url(#paint0_linear_97_7238)"/><path d="M33.0026 15.0614C30.8277 15.4114 28.6279 16.3364 26.8655 17.6488C25.5281 18.6487 25.0781 19.1612 25.0781 19.6736C25.0781 20.9485 26.403 21.2485 27.378 20.1861C28.2654 19.2237 30.2778 18.0987 32.0901 17.5363C33.0776 17.2363 33.3901 17.1988 35.1899 17.1988C37.3648 17.1863 37.9272 17.2863 39.7146 17.9987C42.4519 19.0987 44.9143 21.5735 46.0392 24.3733C46.7266 26.0857 46.8141 26.6107 46.8016 28.8105C46.8016 30.6229 46.7641 30.9104 46.4517 31.9228C45.9017 33.7227 44.7768 35.735 43.8143 36.6225C43.0519 37.3349 42.9269 38.0724 43.4894 38.6348C44.2393 39.3723 44.9768 38.9848 46.3517 37.1349C49.0515 33.4977 49.8014 28.8605 48.4265 24.4733C47.1266 20.3486 43.6519 16.8738 39.5271 15.5739C37.3773 14.899 35.1649 14.724 33.0026 15.0614Z" fill="#151515"/><path d="M33.0026 15.0614C30.8277 15.4114 28.6279 16.3364 26.8655 17.6488C25.5281 18.6487 25.0781 19.1612 25.0781 19.6736C25.0781 20.9485 26.403 21.2485 27.378 20.1861C28.2654 19.2237 30.2778 18.0987 32.0901 17.5363C33.0776 17.2363 33.3901 17.1988 35.1899 17.1988C37.3648 17.1863 37.9272 17.2863 39.7146 17.9987C42.4519 19.0987 44.9143 21.5735 46.0392 24.3733C46.7266 26.0857 46.8141 26.6107 46.8016 28.8105C46.8016 30.6229 46.7641 30.9104 46.4517 31.9228C45.9017 33.7227 44.7768 35.735 43.8143 36.6225C43.0519 37.3349 42.9269 38.0724 43.4894 38.6348C44.2393 39.3723 44.9768 38.9848 46.3517 37.1349C49.0515 33.4977 49.8014 28.8605 48.4265 24.4733C47.1266 20.3486 43.6519 16.8738 39.5271 15.5739C37.3773 14.899 35.1649 14.724 33.0026 15.0614Z" fill="url(#paint1_linear_97_7238)"/><path d="M18.4156 21.361C17.4282 21.611 16.5032 22.4484 16.1408 23.4109C16.0658 23.6109 16.0033 24.1358 16.0033 24.5983C16.0033 25.0608 15.9408 25.6482 15.8658 25.9107C15.7533 26.3482 15.6533 26.4357 14.9283 26.7607C13.7909 27.2856 13.6159 27.2481 12.7035 26.3732C11.7161 25.4357 11.0661 25.1233 10.0037 25.1233C8.76626 25.1233 8.34129 25.3857 6.29143 27.3981C4.09158 29.573 3.67911 30.2479 3.7791 31.5353C3.8666 32.4978 4.10408 32.9977 4.89152 33.8102C5.84146 34.7976 5.91645 35.0101 5.60398 35.8725C5.14151 37.1349 5.09151 37.1724 3.59161 37.2599C2.47919 37.3349 2.17921 37.3974 1.64175 37.6849C0.966793 38.0599 0.479327 38.5973 0.179347 39.3098C-0.0331383 39.8473 -0.0706357 45.1469 0.14185 45.9218C0.316838 46.5718 1.42926 47.6842 2.07922 47.8592C2.3417 47.9342 2.95416 47.9967 3.41663 47.9967C4.66654 47.9967 5.05401 48.2092 5.44149 49.0716C5.91645 50.1466 5.87896 50.3965 5.02902 51.2965C4.12908 52.2589 3.8416 52.8339 3.7791 53.8338C3.69161 55.1087 4.05408 55.7212 6.16644 57.821C8.27879 59.9334 8.69127 60.1834 10.0037 60.1834C11.1411 60.1834 11.6286 59.9459 12.741 58.9335C13.6159 58.1085 13.8534 58.071 14.9158 58.546C15.7908 58.946 16.0033 59.3334 16.0033 60.5833C16.0033 61.0458 16.0658 61.6583 16.1408 61.9208C16.3157 62.5707 17.4282 63.6831 18.0781 63.8581C18.8531 64.0706 24.1527 64.0331 24.6902 63.8206C25.4026 63.5206 25.9401 63.0332 26.3151 62.3582C26.59 61.8458 26.665 61.5208 26.715 60.6333C26.79 59.0085 26.79 59.0334 27.665 58.6085C28.8274 58.071 29.0899 58.1085 30.0273 58.9835C31.1272 60.0084 31.5022 60.1709 32.6271 60.1834C33.3021 60.1834 33.7021 60.1209 34.0645 59.9459C34.6645 59.6584 38.2517 56.1086 38.5642 55.4962C38.6892 55.2462 38.8142 54.6712 38.8517 54.1713C38.9267 53.0339 38.6642 52.4214 37.6393 51.3215C36.7518 50.3715 36.7268 50.2091 37.2393 49.0716C37.5643 48.3467 37.6518 48.2467 38.0893 48.1342C38.3517 48.0592 38.9517 47.9967 39.4142 47.9967C40.7766 47.9967 41.7015 47.4717 42.3265 46.3468L42.6889 45.6844V42.6846C42.6889 39.7598 42.6764 39.6723 42.389 39.0973C41.7515 37.8599 40.9141 37.3849 39.1392 37.2599C38.2142 37.1974 37.8393 37.1224 37.6518 36.96C37.3893 36.7225 36.8768 35.4976 36.8768 35.1101C36.8768 34.9851 37.2268 34.4976 37.6518 34.0352C38.6267 32.9602 38.8767 32.4228 38.8767 31.3728C38.8767 30.0729 38.5767 29.598 36.3644 27.4231C34.1395 25.2358 33.8145 25.0483 32.4021 25.1483C31.3772 25.2233 31.0272 25.3982 29.9523 26.3607C29.4273 26.8356 29.0149 27.1231 28.8274 27.1231C28.3649 27.1231 27.1525 26.5357 26.965 26.2232C26.8525 26.0482 26.7525 25.4732 26.715 24.7983C26.6275 23.0984 26.1526 22.261 24.8777 21.5985C24.3402 21.3235 24.1777 21.311 21.5654 21.286C20.053 21.2735 18.6406 21.311 18.4156 21.361ZM24.1527 23.8359C24.3902 24.0858 24.4402 24.2983 24.5027 25.3982C24.6277 27.4231 25.2151 28.2231 27.1275 28.9855C28.9274 29.698 30.0023 29.4855 31.4647 28.1231C32.6771 26.9856 32.6646 26.9856 34.8395 29.1605C37.0143 31.3353 37.0143 31.3228 35.8769 32.5353C34.5145 33.9977 34.302 35.0726 35.0145 36.8725C35.7769 38.7848 36.5769 39.3723 38.6017 39.4973C40.4766 39.6098 40.4266 39.5348 40.4766 42.3471C40.5266 44.6594 40.4141 45.3969 40.0266 45.5969C39.9141 45.6594 39.3017 45.7469 38.6642 45.7844C36.7144 45.9093 35.8519 46.4968 35.102 48.2342C34.752 49.0466 34.6895 49.3216 34.6895 50.1841C34.702 51.384 34.8395 51.6965 35.8894 52.8214C36.9893 54.0088 36.9768 54.0338 35.0395 56.0212C33.5021 57.5835 32.9896 57.996 32.5771 57.996C32.4771 57.996 32.0022 57.6585 31.5397 57.2336C30.5398 56.3461 30.2023 56.1461 29.4023 55.9962C28.5774 55.8462 27.7525 56.0337 26.54 56.6211C25.0526 57.3586 24.5027 58.221 24.5027 59.8709C24.5027 60.8333 24.3277 61.4458 24.0027 61.6208C23.8652 61.6958 22.6653 61.7458 21.2779 61.7458C18.2281 61.7458 18.3281 61.7958 18.2156 60.0459C18.0906 57.9835 17.4782 57.1211 15.6158 56.3711C14.8533 56.0587 14.4284 55.9712 13.8409 55.9712C12.841 55.9712 12.2535 56.2336 11.3911 57.0461C10.6411 57.7585 10.2787 57.996 9.92868 57.996C9.6537 57.996 6.14144 54.5213 6.05395 54.1588C5.95395 53.7963 6.16644 53.4338 6.95388 52.6089C7.76633 51.7464 8.02881 51.159 8.02881 50.1591C8.02881 49.5716 7.94132 49.1466 7.64134 48.3967C6.89139 46.5343 6.01645 45.9093 3.99159 45.7844C2.19171 45.6719 2.25421 45.7719 2.25421 42.7221C2.25421 41.3347 2.3042 40.1347 2.3792 39.9972C2.55418 39.6723 3.16664 39.4973 4.12908 39.4973C5.94145 39.4973 6.82889 38.8348 7.64134 36.885C8.37879 35.1226 8.1538 33.9852 6.7789 32.4603C6.24143 31.8728 6.00395 31.5228 6.00395 31.2853C6.00395 31.0354 6.40392 30.5604 7.79133 29.1605C9.95368 26.9856 9.96618 26.9856 11.1786 28.1106C12.3035 29.1605 12.616 29.298 13.8159 29.3105C14.6784 29.3105 14.9533 29.248 15.7658 28.898C17.4657 28.1731 18.0906 27.2856 18.2031 25.4732C18.3281 23.4484 18.2656 23.4859 21.5279 23.5359C23.7652 23.5609 23.8777 23.5734 24.1527 23.8359Z" fill="#151515"/><path d="M18.4156 21.361C17.4282 21.611 16.5032 22.4484 16.1408 23.4109C16.0658 23.6109 16.0033 24.1358 16.0033 24.5983C16.0033 25.0608 15.9408 25.6482 15.8658 25.9107C15.7533 26.3482 15.6533 26.4357 14.9283 26.7607C13.7909 27.2856 13.6159 27.2481 12.7035 26.3732C11.7161 25.4357 11.0661 25.1233 10.0037 25.1233C8.76626 25.1233 8.34129 25.3857 6.29143 27.3981C4.09158 29.573 3.67911 30.2479 3.7791 31.5353C3.8666 32.4978 4.10408 32.9977 4.89152 33.8102C5.84146 34.7976 5.91645 35.0101 5.60398 35.8725C5.14151 37.1349 5.09151 37.1724 3.59161 37.2599C2.47919 37.3349 2.17921 37.3974 1.64175 37.6849C0.966793 38.0599 0.479327 38.5973 0.179347 39.3098C-0.0331383 39.8473 -0.0706357 45.1469 0.14185 45.9218C0.316838 46.5718 1.42926 47.6842 2.07922 47.8592C2.3417 47.9342 2.95416 47.9967 3.41663 47.9967C4.66654 47.9967 5.05401 48.2092 5.44149 49.0716C5.91645 50.1466 5.87896 50.3965 5.02902 51.2965C4.12908 52.2589 3.8416 52.8339 3.7791 53.8338C3.69161 55.1087 4.05408 55.7212 6.16644 57.821C8.27879 59.9334 8.69127 60.1834 10.0037 60.1834C11.1411 60.1834 11.6286 59.9459 12.741 58.9335C13.6159 58.1085 13.8534 58.071 14.9158 58.546C15.7908 58.946 16.0033 59.3334 16.0033 60.5833C16.0033 61.0458 16.0658 61.6583 16.1408 61.9208C16.3157 62.5707 17.4282 63.6831 18.0781 63.8581C18.8531 64.0706 24.1527 64.0331 24.6902 63.8206C25.4026 63.5206 25.9401 63.0332 26.3151 62.3582C26.59 61.8458 26.665 61.5208 26.715 60.6333C26.79 59.0085 26.79 59.0334 27.665 58.6085C28.8274 58.071 29.0899 58.1085 30.0273 58.9835C31.1272 60.0084 31.5022 60.1709 32.6271 60.1834C33.3021 60.1834 33.7021 60.1209 34.0645 59.9459C34.6645 59.6584 38.2517 56.1086 38.5642 55.4962C38.6892 55.2462 38.8142 54.6712 38.8517 54.1713C38.9267 53.0339 38.6642 52.4214 37.6393 51.3215C36.7518 50.3715 36.7268 50.2091 37.2393 49.0716C37.5643 48.3467 37.6518 48.2467 38.0893 48.1342C38.3517 48.0592 38.9517 47.9967 39.4142 47.9967C40.7766 47.9967 41.7015 47.4717 42.3265 46.3468L42.6889 45.6844V42.6846C42.6889 39.7598 42.6764 39.6723 42.389 39.0973C41.7515 37.8599 40.9141 37.3849 39.1392 37.2599C38.2142 37.1974 37.8393 37.1224 37.6518 36.96C37.3893 36.7225 36.8768 35.4976 36.8768 35.1101C36.8768 34.9851 37.2268 34.4976 37.6518 34.0352C38.6267 32.9602 38.8767 32.4228 38.8767 31.3728C38.8767 30.0729 38.5767 29.598 36.3644 27.4231C34.1395 25.2358 33.8145 25.0483 32.4021 25.1483C31.3772 25.2233 31.0272 25.3982 29.9523 26.3607C29.4273 26.8356 29.0149 27.1231 28.8274 27.1231C28.3649 27.1231 27.1525 26.5357 26.965 26.2232C26.8525 26.0482 26.7525 25.4732 26.715 24.7983C26.6275 23.0984 26.1526 22.261 24.8777 21.5985C24.3402 21.3235 24.1777 21.311 21.5654 21.286C20.053 21.2735 18.6406 21.311 18.4156 21.361ZM24.1527 23.8359C24.3902 24.0858 24.4402 24.2983 24.5027 25.3982C24.6277 27.4231 25.2151 28.2231 27.1275 28.9855C28.9274 29.698 30.0023 29.4855 31.4647 28.1231C32.6771 26.9856 32.6646 26.9856 34.8395 29.1605C37.0143 31.3353 37.0143 31.3228 35.8769 32.5353C34.5145 33.9977 34.302 35.0726 35.0145 36.8725C35.7769 38.7848 36.5769 39.3723 38.6017 39.4973C40.4766 39.6098 40.4266 39.5348 40.4766 42.3471C40.5266 44.6594 40.4141 45.3969 40.0266 45.5969C39.9141 45.6594 39.3017 45.7469 38.6642 45.7844C36.7144 45.9093 35.8519 46.4968 35.102 48.2342C34.752 49.0466 34.6895 49.3216 34.6895 50.1841C34.702 51.384 34.8395 51.6965 35.8894 52.8214C36.9893 54.0088 36.9768 54.0338 35.0395 56.0212C33.5021 57.5835 32.9896 57.996 32.5771 57.996C32.4771 57.996 32.0022 57.6585 31.5397 57.2336C30.5398 56.3461 30.2023 56.1461 29.4023 55.9962C28.5774 55.8462 27.7525 56.0337 26.54 56.6211C25.0526 57.3586 24.5027 58.221 24.5027 59.8709C24.5027 60.8333 24.3277 61.4458 24.0027 61.6208C23.8652 61.6958 22.6653 61.7458 21.2779 61.7458C18.2281 61.7458 18.3281 61.7958 18.2156 60.0459C18.0906 57.9835 17.4782 57.1211 15.6158 56.3711C14.8533 56.0587 14.4284 55.9712 13.8409 55.9712C12.841 55.9712 12.2535 56.2336 11.3911 57.0461C10.6411 57.7585 10.2787 57.996 9.92868 57.996C9.6537 57.996 6.14144 54.5213 6.05395 54.1588C5.95395 53.7963 6.16644 53.4338 6.95388 52.6089C7.76633 51.7464 8.02881 51.159 8.02881 50.1591C8.02881 49.5716 7.94132 49.1466 7.64134 48.3967C6.89139 46.5343 6.01645 45.9093 3.99159 45.7844C2.19171 45.6719 2.25421 45.7719 2.25421 42.7221C2.25421 41.3347 2.3042 40.1347 2.3792 39.9972C2.55418 39.6723 3.16664 39.4973 4.12908 39.4973C5.94145 39.4973 6.82889 38.8348 7.64134 36.885C8.37879 35.1226 8.1538 33.9852 6.7789 32.4603C6.24143 31.8728 6.00395 31.5228 6.00395 31.2853C6.00395 31.0354 6.40392 30.5604 7.79133 29.1605C9.95368 26.9856 9.96618 26.9856 11.1786 28.1106C12.3035 29.1605 12.616 29.298 13.8159 29.3105C14.6784 29.3105 14.9533 29.248 15.7658 28.898C17.4657 28.1731 18.0906 27.2856 18.2031 25.4732C18.3281 23.4484 18.2656 23.4859 21.5279 23.5359C23.7652 23.5609 23.8777 23.5734 24.1527 23.8359Z" fill="url(#paint2_linear_97_7238)"/><path d="M20.1275 33.0853C17.5652 33.4728 15.2653 34.7477 13.8154 36.5975C13.0405 37.5725 12.2905 39.0474 11.9781 40.2098C11.5906 41.6847 11.6156 43.822 12.0531 45.2844C12.7655 47.6718 14.0654 49.4342 16.0903 50.7591C17.7277 51.8215 19.3401 52.284 21.4399 52.2715C23.9023 52.259 25.8896 51.4965 28.002 49.7466C29.0144 48.9092 29.2019 48.6717 29.8144 47.4343C30.6518 45.7344 30.9268 44.5095 30.9268 42.6221C30.9268 40.7723 30.7393 39.9723 29.9018 38.2599C28.8894 36.1726 26.7646 34.3352 24.4897 33.5727C23.0523 33.0978 21.3274 32.8978 20.1275 33.0853ZM23.5148 35.6226C26.4521 36.535 28.7394 39.5723 28.7519 42.5721C28.7644 44.6595 27.602 47.0843 25.9771 48.3842C25.2397 48.9717 23.8773 49.6341 22.9523 49.8591C22.1024 50.0716 20.34 50.0466 19.4526 49.8091C16.9777 49.1592 14.9279 47.1093 14.1779 44.5595C13.8904 43.5471 13.8904 41.7972 14.1779 40.8098C14.9904 38.0599 17.1402 36.0226 19.815 35.4351C20.9025 35.2101 22.4274 35.2726 23.5148 35.6226Z" fill="#151515"/><path d="M20.1275 33.0853C17.5652 33.4728 15.2653 34.7477 13.8154 36.5975C13.0405 37.5725 12.2905 39.0474 11.9781 40.2098C11.5906 41.6847 11.6156 43.822 12.0531 45.2844C12.7655 47.6718 14.0654 49.4342 16.0903 50.7591C17.7277 51.8215 19.3401 52.284 21.4399 52.2715C23.9023 52.259 25.8896 51.4965 28.002 49.7466C29.0144 48.9092 29.2019 48.6717 29.8144 47.4343C30.6518 45.7344 30.9268 44.5095 30.9268 42.6221C30.9268 40.7723 30.7393 39.9723 29.9018 38.2599C28.8894 36.1726 26.7646 34.3352 24.4897 33.5727C23.0523 33.0978 21.3274 32.8978 20.1275 33.0853ZM23.5148 35.6226C26.4521 36.535 28.7394 39.5723 28.7519 42.5721C28.7644 44.6595 27.602 47.0843 25.9771 48.3842C25.2397 48.9717 23.8773 49.6341 22.9523 49.8591C22.1024 50.0716 20.34 50.0466 19.4526 49.8091C16.9777 49.1592 14.9279 47.1093 14.1779 44.5595C13.8904 43.5471 13.8904 41.7972 14.1779 40.8098C14.9904 38.0599 17.1402 36.0226 19.815 35.4351C20.9025 35.2101 22.4274 35.2726 23.5148 35.6226Z" fill="url(#paint3_linear_97_7238)"/><defs><linearGradient id="paint0_linear_97_7238" x1="16.2679" y1="42.3597" x2="56.4663" y2="8.45984" gradientUnits="userSpaceOnUse"><stop stop-color="#8A5C2A"/><stop offset="0.514222" stop-color="#C2A650" stop-opacity="0.81"/><stop offset="0.619294" stop-color="#D1BA5A" stop-opacity="0.92"/><stop offset="0.697308" stop-color="#C8AD53" stop-opacity="0.86"/><stop offset="1" stop-color="#A37C36"/></linearGradient><linearGradient id="paint1_linear_97_7238" x1="27.2027" y1="34.3838" x2="45.6886" y2="18.8398" gradientUnits="userSpaceOnUse"><stop stop-color="#8A5C2A"/><stop offset="0.514222" stop-color="#C2A650" stop-opacity="0.81"/><stop offset="0.619294" stop-color="#D1BA5A" stop-opacity="0.92"/><stop offset="0.697308" stop-color="#C8AD53" stop-opacity="0.86"/><stop offset="1" stop-color="#A37C36"/></linearGradient><linearGradient id="paint2_linear_97_7238" x1="3.77555" y1="55.8395" x2="36.5649" y2="28.2055" gradientUnits="userSpaceOnUse"><stop stop-color="#8A5C2A"/><stop offset="0.514222" stop-color="#C2A650" stop-opacity="0.81"/><stop offset="0.619294" stop-color="#D1BA5A" stop-opacity="0.92"/><stop offset="0.697308" stop-color="#C8AD53" stop-opacity="0.86"/><stop offset="1" stop-color="#A37C36"/></linearGradient><linearGradient id="paint3_linear_97_7238" x1="13.4051" y1="48.5931" x2="28.1834" y2="36.1526" gradientUnits="userSpaceOnUse"><stop stop-color="#8A5C2A"/><stop offset="0.514222" stop-color="#C2A650" stop-opacity="0.81"/><stop offset="0.619294" stop-color="#D1BA5A" stop-opacity="0.92"/><stop offset="0.697308" stop-color="#C8AD53" stop-opacity="0.86"/><stop offset="1" stop-color="#A37C36"/></linearGradient></defs></svg>