<svg width="67" height="67" fill="none" xmlns="http://www.w3.org/2000/svg"><path d="M32.7148 0.261719C32.4924 0.484184 32.4531 0.693558 32.4531 1.60957V2.68262L31.524 3.92578C30.0322 5.92793 28.9199 7.15801 26.8523 9.17324C24.0258 11.9213 21.2516 14.002 17.8885 15.8863L16.3312 16.75H13.9234H11.5156V17.7969V18.8438H14.6562H17.7969L17.7707 25.74L17.7314 32.6494L15.6377 33.2121C12.2092 34.115 9.3957 34.6908 4.08281 35.5414C3.48086 35.633 3.14062 36.0125 3.14062 36.5883C3.14062 37.2164 3.32383 37.5174 3.82109 37.6744C4.05664 37.7398 6.1373 38.1063 8.44043 38.4857C10.7436 38.8652 12.6672 39.2055 12.7195 39.2447C12.7719 39.284 10.4557 40.4094 7.57676 41.7311C4.61934 43.092 2.29004 44.2436 2.21152 44.3744C2.00215 44.7801 2.08066 45.526 2.35547 45.8008C2.6041 46.0494 2.7873 46.0625 5.49609 46.0625H8.375V46.8477C8.375 47.8291 8.63672 48.1562 9.42188 48.1562C10.207 48.1562 10.4688 47.8291 10.4688 46.8477V46.0625H13.0859H15.7031V49.7266V53.3906H13.0859H10.4688V52.082C10.4688 50.9436 10.4295 50.7342 10.207 50.5117C9.85371 50.1584 8.99004 50.1584 8.63672 50.5117C8.38809 50.7604 8.375 50.9436 8.375 55.2096V59.6326L8.02168 59.7111C7.74687 59.7766 7.17109 60.4047 5.62695 62.3414L3.59863 64.9062H1.80586H0V65.9531V67H33.5H67V65.9531V64.9062H65.2072H63.4014L61.373 62.3414C59.8289 60.4047 59.2531 59.7766 58.9914 59.7111L58.625 59.6326V52.8541V46.0625H60.457C62.1189 46.0625 62.3152 46.0363 62.5508 45.8008C62.8518 45.4998 62.9041 44.6623 62.6555 44.3352C62.5246 44.165 58.167 41.7311 53.8094 39.4018C53.7178 39.3494 55.6807 38.9699 58.1932 38.5512C60.6926 38.1324 62.9434 37.7398 63.1789 37.6613C63.4668 37.5697 63.6762 37.3865 63.8201 37.1117C63.9902 36.7322 63.9902 36.6406 63.8201 36.2219C63.5715 35.633 63.349 35.5676 60.7842 35.2666C57.6959 34.9002 54.4506 34.2197 50.8127 33.1467L49.2031 32.6756V29.1686C49.2031 25.8186 49.19 25.6354 48.9414 25.3867C48.5881 25.0334 47.7244 25.0334 47.3711 25.3867C47.1225 25.6354 47.1094 25.8186 47.1094 28.7891C47.1094 31.223 47.0701 31.9297 46.9523 31.9166C46.8607 31.9166 45.9316 31.6287 44.8848 31.2885L42.9873 30.6734L42.948 24.7586L42.9219 18.8438H45.0156H47.1094V20.6758C47.1094 22.3377 47.1355 22.534 47.3711 22.7695C47.7244 23.1229 48.5881 23.1229 48.9414 22.7695C49.177 22.534 49.2031 22.3377 49.2031 20.6758V18.8438H52.3438H55.4844V17.7969V16.75H53.0766H50.6687L49.1246 15.8863C43.8771 12.9551 39.127 8.79375 35.476 3.92578L34.5469 2.68262V1.60957C34.5469 0.30098 34.3506 0 33.5 0C33.1467 0 32.885 0.0916061 32.7148 0.261719ZM34.8086 6.76543C37.5043 10.1285 41.5217 13.7533 45.1988 16.1742L45.9709 16.6846L39.9252 16.75C34.1281 16.8154 33.8664 16.8285 33.6832 17.0641C33.4084 17.4436 33.4477 18.268 33.7617 18.582C34.0103 18.8307 34.1936 18.8438 37.4258 18.8438H40.8281V21.4609V24.0781H37.6875H34.5469V22.7695C34.5469 21.2254 34.3898 20.9375 33.5 20.9375C32.6102 20.9375 32.4531 21.2254 32.4531 22.7695V24.0781H29.3125H26.1719V21.4609V18.8438H28.5273C30.7127 18.8438 30.8959 18.8307 31.1445 18.582C31.4586 18.268 31.4979 17.4436 31.223 17.0641C31.0398 16.8285 30.7912 16.8154 26.041 16.75L21.0422 16.6846L22.39 15.7686C25.7531 13.5047 29.692 9.89297 32.1914 6.76543C32.8719 5.92793 33.4607 5.23438 33.5 5.23438C33.5393 5.23438 34.1281 5.92793 34.8086 6.76543ZM24.0781 24.7193V30.5949L22.076 31.2623C20.9898 31.6287 20.0477 31.9297 19.9822 31.9297C19.9299 31.9297 19.8906 28.9854 19.8906 25.3867V18.8438H21.9844H24.0781V24.7193ZM40.8281 28.2656V30.3594H33.5H26.1719V28.2656V26.1719H33.5H40.8281V28.2656ZM42.6732 32.898C45.6961 34.0104 52.7625 36.1303 54.7646 36.5229L55.6676 36.693L52.8018 37.1902L49.9229 37.6744H33.5916L17.2473 37.6875L14.4861 37.2295C12.9551 36.9809 11.568 36.7322 11.3848 36.693C11.1492 36.6406 11.6334 36.4836 13.0074 36.1695C16.4883 35.3844 21.0291 34.0758 24.0127 32.9897L25.4521 32.4662H33.4477L41.4562 32.4531L42.6732 32.898ZM53.6 41.8357L57.3818 43.9033L45.1203 43.9426C38.3811 43.9557 27.3234 43.9557 20.558 43.9426L8.24414 43.9033L12.6672 41.8488L17.0771 39.8074L33.4477 39.7943L49.8051 39.7812L53.6 41.8357ZM24.0781 49.7266V53.3906H20.9375H17.7969V49.7266V46.0625H20.9375H24.0781V49.7266ZM40.8281 52.8672V59.6719H37.6875H34.5469V56.793C34.5469 54.0842 34.5338 53.901 34.2852 53.6523C34.115 53.4822 33.8533 53.3906 33.5 53.3906C33.1467 53.3906 32.885 53.4822 32.7148 53.6523C32.4662 53.901 32.4531 54.0842 32.4531 56.793V59.6719H29.3125H26.1719V52.8672V46.0625H33.5H40.8281V52.8672ZM49.2031 49.7266V53.3906H46.0625H42.9219V49.7266V46.0625H46.0625H49.2031V49.7266ZM56.5312 49.7266V53.3906H53.9141H51.2969V49.7266V46.0625H53.9141H56.5312V49.7266ZM15.7031 57.5781V59.6719H13.0859H10.4688V57.5781V55.4844H13.0859H15.7031V57.5781ZM24.0781 57.5781V59.6719H20.9375H17.7969V57.5781V55.4844H20.9375H24.0781V57.5781ZM49.2031 57.5781V59.6719H46.0625H42.9219V57.5781V55.4844H46.0625H49.2031V57.5781ZM56.5312 57.5781V59.6719H53.9141H51.2969V57.5781V55.4844H53.9141H56.5312V57.5781ZM24.0781 63.3359V64.9062H15.3105C8.00859 64.9062 6.54297 64.8801 6.63457 64.7361C6.68691 64.6314 7.23652 63.9248 7.85156 63.1658L8.96387 61.7656H16.5275H24.0781V63.3359ZM40.8281 63.3359V64.9062H33.5H26.1719V63.3359V61.7656H33.5H40.8281V63.3359ZM59.1484 63.1658C59.7635 63.9248 60.3131 64.6314 60.3654 64.7361C60.457 64.8801 58.9914 64.9062 51.6895 64.9062H42.9219V63.3359V61.7656H50.4855H58.0361L59.1484 63.1658Z" fill="#151515"/><path d="M32.7148 0.261719C32.4924 0.484184 32.4531 0.693558 32.4531 1.60957V2.68262L31.524 3.92578C30.0322 5.92793 28.9199 7.15801 26.8523 9.17324C24.0258 11.9213 21.2516 14.002 17.8885 15.8863L16.3312 16.75H13.9234H11.5156V17.7969V18.8438H14.6562H17.7969L17.7707 25.74L17.7314 32.6494L15.6377 33.2121C12.2092 34.115 9.3957 34.6908 4.08281 35.5414C3.48086 35.633 3.14062 36.0125 3.14062 36.5883C3.14062 37.2164 3.32383 37.5174 3.82109 37.6744C4.05664 37.7398 6.1373 38.1063 8.44043 38.4857C10.7436 38.8652 12.6672 39.2055 12.7195 39.2447C12.7719 39.284 10.4557 40.4094 7.57676 41.7311C4.61934 43.092 2.29004 44.2436 2.21152 44.3744C2.00215 44.7801 2.08066 45.526 2.35547 45.8008C2.6041 46.0494 2.7873 46.0625 5.49609 46.0625H8.375V46.8477C8.375 47.8291 8.63672 48.1562 9.42188 48.1562C10.207 48.1562 10.4688 47.8291 10.4688 46.8477V46.0625H13.0859H15.7031V49.7266V53.3906H13.0859H10.4688V52.082C10.4688 50.9436 10.4295 50.7342 10.207 50.5117C9.85371 50.1584 8.99004 50.1584 8.63672 50.5117C8.38809 50.7604 8.375 50.9436 8.375 55.2096V59.6326L8.02168 59.7111C7.74687 59.7766 7.17109 60.4047 5.62695 62.3414L3.59863 64.9062H1.80586H0V65.9531V67H33.5H67V65.9531V64.9062H65.2072H63.4014L61.373 62.3414C59.8289 60.4047 59.2531 59.7766 58.9914 59.7111L58.625 59.6326V52.8541V46.0625H60.457C62.1189 46.0625 62.3152 46.0363 62.5508 45.8008C62.8518 45.4998 62.9041 44.6623 62.6555 44.3352C62.5246 44.165 58.167 41.7311 53.8094 39.4018C53.7178 39.3494 55.6807 38.9699 58.1932 38.5512C60.6926 38.1324 62.9434 37.7398 63.1789 37.6613C63.4668 37.5697 63.6762 37.3865 63.8201 37.1117C63.9902 36.7322 63.9902 36.6406 63.8201 36.2219C63.5715 35.633 63.349 35.5676 60.7842 35.2666C57.6959 34.9002 54.4506 34.2197 50.8127 33.1467L49.2031 32.6756V29.1686C49.2031 25.8186 49.19 25.6354 48.9414 25.3867C48.5881 25.0334 47.7244 25.0334 47.3711 25.3867C47.1225 25.6354 47.1094 25.8186 47.1094 28.7891C47.1094 31.223 47.0701 31.9297 46.9523 31.9166C46.8607 31.9166 45.9316 31.6287 44.8848 31.2885L42.9873 30.6734L42.948 24.7586L42.9219 18.8438H45.0156H47.1094V20.6758C47.1094 22.3377 47.1355 22.534 47.3711 22.7695C47.7244 23.1229 48.5881 23.1229 48.9414 22.7695C49.177 22.534 49.2031 22.3377 49.2031 20.6758V18.8438H52.3438H55.4844V17.7969V16.75H53.0766H50.6687L49.1246 15.8863C43.8771 12.9551 39.127 8.79375 35.476 3.92578L34.5469 2.68262V1.60957C34.5469 0.30098 34.3506 0 33.5 0C33.1467 0 32.885 0.0916061 32.7148 0.261719ZM34.8086 6.76543C37.5043 10.1285 41.5217 13.7533 45.1988 16.1742L45.9709 16.6846L39.9252 16.75C34.1281 16.8154 33.8664 16.8285 33.6832 17.0641C33.4084 17.4436 33.4477 18.268 33.7617 18.582C34.0103 18.8307 34.1936 18.8438 37.4258 18.8438H40.8281V21.4609V24.0781H37.6875H34.5469V22.7695C34.5469 21.2254 34.3898 20.9375 33.5 20.9375C32.6102 20.9375 32.4531 21.2254 32.4531 22.7695V24.0781H29.3125H26.1719V21.4609V18.8438H28.5273C30.7127 18.8438 30.8959 18.8307 31.1445 18.582C31.4586 18.268 31.4979 17.4436 31.223 17.0641C31.0398 16.8285 30.7912 16.8154 26.041 16.75L21.0422 16.6846L22.39 15.7686C25.7531 13.5047 29.692 9.89297 32.1914 6.76543C32.8719 5.92793 33.4607 5.23438 33.5 5.23438C33.5393 5.23438 34.1281 5.92793 34.8086 6.76543ZM24.0781 24.7193V30.5949L22.076 31.2623C20.9898 31.6287 20.0477 31.9297 19.9822 31.9297C19.9299 31.9297 19.8906 28.9854 19.8906 25.3867V18.8438H21.9844H24.0781V24.7193ZM40.8281 28.2656V30.3594H33.5H26.1719V28.2656V26.1719H33.5H40.8281V28.2656ZM42.6732 32.898C45.6961 34.0104 52.7625 36.1303 54.7646 36.5229L55.6676 36.693L52.8018 37.1902L49.9229 37.6744H33.5916L17.2473 37.6875L14.4861 37.2295C12.9551 36.9809 11.568 36.7322 11.3848 36.693C11.1492 36.6406 11.6334 36.4836 13.0074 36.1695C16.4883 35.3844 21.0291 34.0758 24.0127 32.9897L25.4521 32.4662H33.4477L41.4562 32.4531L42.6732 32.898ZM53.6 41.8357L57.3818 43.9033L45.1203 43.9426C38.3811 43.9557 27.3234 43.9557 20.558 43.9426L8.24414 43.9033L12.6672 41.8488L17.0771 39.8074L33.4477 39.7943L49.8051 39.7812L53.6 41.8357ZM24.0781 49.7266V53.3906H20.9375H17.7969V49.7266V46.0625H20.9375H24.0781V49.7266ZM40.8281 52.8672V59.6719H37.6875H34.5469V56.793C34.5469 54.0842 34.5338 53.901 34.2852 53.6523C34.115 53.4822 33.8533 53.3906 33.5 53.3906C33.1467 53.3906 32.885 53.4822 32.7148 53.6523C32.4662 53.901 32.4531 54.0842 32.4531 56.793V59.6719H29.3125H26.1719V52.8672V46.0625H33.5H40.8281V52.8672ZM49.2031 49.7266V53.3906H46.0625H42.9219V49.7266V46.0625H46.0625H49.2031V49.7266ZM56.5312 49.7266V53.3906H53.9141H51.2969V49.7266V46.0625H53.9141H56.5312V49.7266ZM15.7031 57.5781V59.6719H13.0859H10.4688V57.5781V55.4844H13.0859H15.7031V57.5781ZM24.0781 57.5781V59.6719H20.9375H17.7969V57.5781V55.4844H20.9375H24.0781V57.5781ZM49.2031 57.5781V59.6719H46.0625H42.9219V57.5781V55.4844H46.0625H49.2031V57.5781ZM56.5312 57.5781V59.6719H53.9141H51.2969V57.5781V55.4844H53.9141H56.5312V57.5781ZM24.0781 63.3359V64.9062H15.3105C8.00859 64.9062 6.54297 64.8801 6.63457 64.7361C6.68691 64.6314 7.23652 63.9248 7.85156 63.1658L8.96387 61.7656H16.5275H24.0781V63.3359ZM40.8281 63.3359V64.9062H33.5H26.1719V63.3359V61.7656H33.5H40.8281V63.3359ZM59.1484 63.1658C59.7635 63.9248 60.3131 64.6314 60.3654 64.7361C60.457 64.8801 58.9914 64.9062 51.6895 64.9062H42.9219V63.3359V61.7656H50.4855H58.0361L59.1484 63.1658Z" fill="url(#paint0_linear_97_7260)"/><defs><linearGradient id="paint0_linear_97_7260" x1="5.92571" y1="54.2005" x2="57.3608" y2="10.8243" gradientUnits="userSpaceOnUse"><stop stop-color="#8A5C2A"/><stop offset="0.514222" stop-color="#C2A650" stop-opacity="0.81"/><stop offset="0.619294" stop-color="#D1BA5A" stop-opacity="0.92"/><stop offset="0.697308" stop-color="#C8AD53" stop-opacity="0.86"/><stop offset="1" stop-color="#A37C36"/></linearGradient></defs></svg>