<svg width="62" height="54" fill="none" xmlns="http://www.w3.org/2000/svg"><path d="M4.44081 0.152172C3.86157 0.37759 3.23085 1.05385 3.14075 1.57232L3.05064 2.02316H2.43279C1.67335 2.02316 1.20996 2.16968 0.720827 2.56417C0.128719 3.04882 0 3.46585 0 4.84091C0 6.21598 0.128719 6.633 0.720827 7.11766C1.20996 7.51214 1.67335 7.65866 2.43279 7.65866H3.05064L3.14075 8.1095C3.23085 8.63924 3.86157 9.3155 4.46655 9.52965C4.69825 9.61982 5.17451 9.68745 5.53492 9.68745C5.89534 9.68745 6.3716 9.61982 6.60329 9.52965C7.01519 9.38313 7.85187 8.65051 7.85187 8.44764C7.85187 8.38001 8.10931 8.33493 8.4311 8.33493H9.01034V9.48457C8.99747 10.127 8.92024 11.7613 8.81726 13.1251C8.71429 14.4889 8.55982 18.6592 8.48259 22.4011C8.30238 30.1556 8.19941 29.423 9.53809 29.7498L10.349 29.9415L9.42224 30.2458C8.86875 30.4374 8.4311 30.6515 8.32813 30.798C8.03207 31.2602 8.23802 43.5005 8.55982 44.8305C8.62418 45.0446 8.57269 45.0784 8.23802 45.0784C8.03207 45.0784 7.85187 45.0333 7.85187 44.9657C7.85187 44.7628 7.01519 44.0302 6.60329 43.8837C6.06267 43.6808 5.00717 43.6808 4.46655 43.8837C3.86157 44.0978 3.23085 44.7741 3.14075 45.3038L3.05064 45.7547H2.41992C1.36442 45.7547 0.476261 46.2506 0.141591 47.0283C-0.0386157 47.4453 -0.0386157 49.6995 0.141591 50.1166C0.476261 50.8943 1.36442 51.3902 2.41992 51.3902H3.05064L3.14075 51.841C3.23085 52.3708 3.86157 53.047 4.46655 53.2612C5.00717 53.464 6.06267 53.464 6.60329 53.2612C7.01519 53.1146 7.85187 52.382 7.85187 52.1792C7.85187 52.1003 16.0384 52.0664 30.5064 52.0664C44.9745 52.0664 53.161 52.1003 53.161 52.1792C53.161 52.382 53.9977 53.1146 54.4096 53.2612C54.9502 53.464 56.0057 53.464 56.5463 53.2612C57.1513 53.047 57.782 52.3708 57.8721 51.841L57.9622 51.3902H58.5929C59.3524 51.3902 59.9316 51.1873 60.395 50.759C60.9099 50.2744 61.0129 49.9137 61.0129 48.5612C61.0129 47.1974 60.8842 46.7803 60.292 46.2957C59.8029 45.9012 59.3395 45.7547 58.5801 45.7547H57.9622L57.8721 45.3038C57.782 44.7741 57.1513 44.0978 56.5463 43.8837C56.0057 43.6808 54.9502 43.6808 54.4096 43.8837C53.9977 44.0302 53.161 44.7628 53.161 44.9657C53.161 45.0333 52.8006 45.0784 52.3758 45.0784H51.5778L51.6421 41.6858C51.7193 37.7748 51.7837 37.989 50.4322 37.5156C50.0203 37.3803 49.6856 37.2338 49.6856 37.1887C49.6856 37.1549 50.1232 36.9407 50.651 36.7041C51.2817 36.4336 51.6679 36.1969 51.7322 36.0278C51.7837 35.8925 51.8738 34.8105 51.9253 33.6158C51.9639 32.4211 52.1441 29.2314 52.3115 26.5151C52.7877 19.0987 52.8263 18.1069 52.659 17.8364C52.5174 17.5997 52.2471 17.4983 51.1015 17.2278L50.5223 17.1038L51.449 16.7995C52.9293 16.3261 52.8392 16.5515 52.8135 13.2604C52.8006 11.6937 52.762 9.94668 52.7105 9.37186C52.6333 8.38001 52.6461 8.33493 52.8907 8.33493C53.0452 8.33493 53.161 8.38001 53.161 8.44764C53.161 8.65051 53.9977 9.38313 54.4096 9.52965C54.6413 9.61982 55.1175 9.68745 55.4779 9.68745C55.8384 9.68745 56.3146 9.61982 56.5463 9.52965C57.1513 9.3155 57.782 8.63924 57.8721 8.1095L57.9622 7.65866H58.5801C59.3395 7.65866 59.8029 7.51214 60.292 7.11766C60.8842 6.633 61.0129 6.21598 61.0129 4.84091C61.0129 3.46585 60.8842 3.04882 60.292 2.56417C59.8029 2.16968 59.3395 2.02316 58.5801 2.02316H57.9622L57.8721 1.57232C57.782 1.04258 57.1513 0.366322 56.5463 0.152172C56.0057 -0.050705 54.9502 -0.050705 54.4096 0.152172C53.9977 0.298695 53.161 1.03131 53.161 1.23419C53.161 1.31309 44.9745 1.3469 30.5064 1.3469C16.0384 1.3469 7.85187 1.31309 7.85187 1.23419C7.85187 1.03131 7.01519 0.298695 6.60329 0.152172C6.07554 -0.050705 4.94281 -0.0394363 4.44081 0.152172ZM6.0498 1.97808C6.12703 2.13587 6.17852 3.42076 6.17852 4.84091C6.17852 6.26106 6.12703 7.54596 6.0498 7.70375C5.9597 7.92917 5.84385 7.9968 5.53492 7.9968C5.226 7.9968 5.11015 7.92917 5.02005 7.70375C4.94281 7.54596 4.89133 6.26106 4.89133 4.84091C4.89133 3.42076 4.94281 2.13587 5.02005 1.97808C5.11015 1.75266 5.226 1.68503 5.53492 1.68503C5.84385 1.68503 5.9597 1.75266 6.0498 1.97808ZM55.9928 1.97808C56.0701 2.13587 56.1215 3.42076 56.1215 4.84091C56.1215 6.26106 56.0701 7.54596 55.9928 7.70375C55.9027 7.92917 55.7869 7.9968 55.4779 7.9968C55.169 7.9968 55.0532 7.92917 54.9631 7.70375C54.8858 7.54596 54.8344 6.26106 54.8344 4.84091C54.8344 3.42076 54.8858 2.13587 54.9631 1.97808C55.0532 1.75266 55.169 1.68503 55.4779 1.68503C55.7869 1.68503 55.9027 1.75266 55.9928 1.97808ZM53.0323 4.84091V6.75698H30.5064H7.98059V4.84091V2.92484H30.5064H53.0323V4.84091ZM3.08926 4.85218V6.11454L2.613 6.04691C1.99515 5.95674 1.90504 5.8553 1.82781 5.19031C1.71196 4.05194 1.9694 3.62364 2.80608 3.61237C3.08926 3.6011 3.08926 3.62364 3.08926 4.85218ZM59.0049 3.82652C59.0821 3.89415 59.1464 4.34499 59.1464 4.84091C59.1464 5.33684 59.0821 5.78768 59.0049 5.8553C58.9276 5.92293 58.6573 6.00183 58.3999 6.04691L57.9236 6.11454V4.84091V3.56729L58.3999 3.63491C58.6573 3.68 58.9276 3.7589 59.0049 3.82652ZM50.7668 9.37186C50.8183 9.94668 50.8569 11.4795 50.8827 12.7757L50.9084 15.1426L48.7846 15.8301C47.6132 16.2021 46.5963 16.5515 46.5191 16.5966C46.2745 16.7206 46.1844 17.2503 46.3389 17.5884C46.5062 17.9378 46.8538 18.0618 48.7846 18.4788C49.3895 18.6141 50.0975 18.7719 50.3678 18.8282L50.8569 18.9409L50.7797 20.1469C50.3421 26.9208 50.0589 31.5983 49.9945 33.1988L49.9044 35.1261L48.4885 35.7348C46.7379 36.4899 46.3389 36.7604 46.3389 37.2113C46.3389 37.3916 46.3904 37.6283 46.4547 37.741C46.532 37.8537 47.3172 38.2144 48.2053 38.5525L49.84 39.1611L49.7628 39.6571C49.7242 39.9276 49.6856 41.2575 49.6856 42.6101V45.0784H30.1332H10.5807L10.5035 44.7741C10.246 43.5794 9.96286 32.2633 10.1946 32.0604C10.2332 32.0153 11.2372 31.6659 12.4214 31.2827C13.5927 30.8882 14.674 30.4937 14.8156 30.3923C15.1245 30.1556 15.1374 29.4793 14.8284 29.2088C14.6997 29.1074 13.6828 28.8031 12.4343 28.5213L10.2718 28.0254L10.349 24.0129C10.452 19.2002 10.6579 14.0831 10.8124 12.2234C10.8768 11.4795 10.9411 10.2961 10.9411 9.59728V8.33493H30.8154H50.6896L50.7668 9.37186ZM6.0498 45.7096C6.21713 46.0815 6.21713 51.0633 6.0498 51.4353C5.86959 51.8523 5.20025 51.8523 5.02005 51.4353C4.94281 51.2775 4.89133 49.9926 4.89133 48.5724C4.89133 47.1523 4.94281 45.8674 5.02005 45.7096C5.11015 45.4842 5.226 45.4165 5.53492 45.4165C5.84385 45.4165 5.9597 45.4842 6.0498 45.7096ZM55.9928 45.7096C56.0701 45.8674 56.1215 47.1523 56.1215 48.5724C56.1215 49.9926 56.0701 51.2775 55.9928 51.4353C55.8126 51.8523 55.1433 51.8523 54.9631 51.4353C54.8858 51.2775 54.8344 49.9926 54.8344 48.5724C54.8344 47.1523 54.8858 45.8674 54.9631 45.7096C55.0532 45.4842 55.169 45.4165 55.4779 45.4165C55.7869 45.4165 55.9027 45.4842 55.9928 45.7096ZM53.0323 48.5724V50.4885H30.5064H7.98059V48.5724V46.6564H30.5064H53.0323V48.5724ZM3.08926 48.5837V49.8461L2.613 49.7784C1.99515 49.6883 1.90504 49.5868 1.82781 48.9218C1.71196 47.7835 1.9694 47.3552 2.80608 47.3439C3.08926 47.3326 3.08926 47.3552 3.08926 48.5837ZM59.0049 47.558C59.0821 47.6257 59.1464 48.0765 59.1464 48.5724C59.1464 49.0684 59.0821 49.5192 59.0049 49.5868C58.9276 49.6544 58.6573 49.7333 58.3999 49.7784L57.9236 49.8461V48.5724V47.2988L58.3999 47.3664C58.6573 47.4115 58.9276 47.4904 59.0049 47.558Z" fill="#8A5C2A"/><path d="M4.44081 0.152172C3.86157 0.37759 3.23085 1.05385 3.14075 1.57232L3.05064 2.02316H2.43279C1.67335 2.02316 1.20996 2.16968 0.720827 2.56417C0.128719 3.04882 0 3.46585 0 4.84091C0 6.21598 0.128719 6.633 0.720827 7.11766C1.20996 7.51214 1.67335 7.65866 2.43279 7.65866H3.05064L3.14075 8.1095C3.23085 8.63924 3.86157 9.3155 4.46655 9.52965C4.69825 9.61982 5.17451 9.68745 5.53492 9.68745C5.89534 9.68745 6.3716 9.61982 6.60329 9.52965C7.01519 9.38313 7.85187 8.65051 7.85187 8.44764C7.85187 8.38001 8.10931 8.33493 8.4311 8.33493H9.01034V9.48457C8.99747 10.127 8.92024 11.7613 8.81726 13.1251C8.71429 14.4889 8.55982 18.6592 8.48259 22.4011C8.30238 30.1556 8.19941 29.423 9.53809 29.7498L10.349 29.9415L9.42224 30.2458C8.86875 30.4374 8.4311 30.6515 8.32813 30.798C8.03207 31.2602 8.23802 43.5005 8.55982 44.8305C8.62418 45.0446 8.57269 45.0784 8.23802 45.0784C8.03207 45.0784 7.85187 45.0333 7.85187 44.9657C7.85187 44.7628 7.01519 44.0302 6.60329 43.8837C6.06267 43.6808 5.00717 43.6808 4.46655 43.8837C3.86157 44.0978 3.23085 44.7741 3.14075 45.3038L3.05064 45.7547H2.41992C1.36442 45.7547 0.476261 46.2506 0.141591 47.0283C-0.0386157 47.4453 -0.0386157 49.6995 0.141591 50.1166C0.476261 50.8943 1.36442 51.3902 2.41992 51.3902H3.05064L3.14075 51.841C3.23085 52.3708 3.86157 53.047 4.46655 53.2612C5.00717 53.464 6.06267 53.464 6.60329 53.2612C7.01519 53.1146 7.85187 52.382 7.85187 52.1792C7.85187 52.1003 16.0384 52.0664 30.5064 52.0664C44.9745 52.0664 53.161 52.1003 53.161 52.1792C53.161 52.382 53.9977 53.1146 54.4096 53.2612C54.9502 53.464 56.0057 53.464 56.5463 53.2612C57.1513 53.047 57.782 52.3708 57.8721 51.841L57.9622 51.3902H58.5929C59.3524 51.3902 59.9316 51.1873 60.395 50.759C60.9099 50.2744 61.0129 49.9137 61.0129 48.5612C61.0129 47.1974 60.8842 46.7803 60.292 46.2957C59.8029 45.9012 59.3395 45.7547 58.5801 45.7547H57.9622L57.8721 45.3038C57.782 44.7741 57.1513 44.0978 56.5463 43.8837C56.0057 43.6808 54.9502 43.6808 54.4096 43.8837C53.9977 44.0302 53.161 44.7628 53.161 44.9657C53.161 45.0333 52.8006 45.0784 52.3758 45.0784H51.5778L51.6421 41.6858C51.7193 37.7748 51.7837 37.989 50.4322 37.5156C50.0203 37.3803 49.6856 37.2338 49.6856 37.1887C49.6856 37.1549 50.1232 36.9407 50.651 36.7041C51.2817 36.4336 51.6679 36.1969 51.7322 36.0278C51.7837 35.8925 51.8738 34.8105 51.9253 33.6158C51.9639 32.4211 52.1441 29.2314 52.3115 26.5151C52.7877 19.0987 52.8263 18.1069 52.659 17.8364C52.5174 17.5997 52.2471 17.4983 51.1015 17.2278L50.5223 17.1038L51.449 16.7995C52.9293 16.3261 52.8392 16.5515 52.8135 13.2604C52.8006 11.6937 52.762 9.94668 52.7105 9.37186C52.6333 8.38001 52.6461 8.33493 52.8907 8.33493C53.0452 8.33493 53.161 8.38001 53.161 8.44764C53.161 8.65051 53.9977 9.38313 54.4096 9.52965C54.6413 9.61982 55.1175 9.68745 55.4779 9.68745C55.8384 9.68745 56.3146 9.61982 56.5463 9.52965C57.1513 9.3155 57.782 8.63924 57.8721 8.1095L57.9622 7.65866H58.5801C59.3395 7.65866 59.8029 7.51214 60.292 7.11766C60.8842 6.633 61.0129 6.21598 61.0129 4.84091C61.0129 3.46585 60.8842 3.04882 60.292 2.56417C59.8029 2.16968 59.3395 2.02316 58.5801 2.02316H57.9622L57.8721 1.57232C57.782 1.04258 57.1513 0.366322 56.5463 0.152172C56.0057 -0.050705 54.9502 -0.050705 54.4096 0.152172C53.9977 0.298695 53.161 1.03131 53.161 1.23419C53.161 1.31309 44.9745 1.3469 30.5064 1.3469C16.0384 1.3469 7.85187 1.31309 7.85187 1.23419C7.85187 1.03131 7.01519 0.298695 6.60329 0.152172C6.07554 -0.050705 4.94281 -0.0394363 4.44081 0.152172ZM6.0498 1.97808C6.12703 2.13587 6.17852 3.42076 6.17852 4.84091C6.17852 6.26106 6.12703 7.54596 6.0498 7.70375C5.9597 7.92917 5.84385 7.9968 5.53492 7.9968C5.226 7.9968 5.11015 7.92917 5.02005 7.70375C4.94281 7.54596 4.89133 6.26106 4.89133 4.84091C4.89133 3.42076 4.94281 2.13587 5.02005 1.97808C5.11015 1.75266 5.226 1.68503 5.53492 1.68503C5.84385 1.68503 5.9597 1.75266 6.0498 1.97808ZM55.9928 1.97808C56.0701 2.13587 56.1215 3.42076 56.1215 4.84091C56.1215 6.26106 56.0701 7.54596 55.9928 7.70375C55.9027 7.92917 55.7869 7.9968 55.4779 7.9968C55.169 7.9968 55.0532 7.92917 54.9631 7.70375C54.8858 7.54596 54.8344 6.26106 54.8344 4.84091C54.8344 3.42076 54.8858 2.13587 54.9631 1.97808C55.0532 1.75266 55.169 1.68503 55.4779 1.68503C55.7869 1.68503 55.9027 1.75266 55.9928 1.97808ZM53.0323 4.84091V6.75698H30.5064H7.98059V4.84091V2.92484H30.5064H53.0323V4.84091ZM3.08926 4.85218V6.11454L2.613 6.04691C1.99515 5.95674 1.90504 5.8553 1.82781 5.19031C1.71196 4.05194 1.9694 3.62364 2.80608 3.61237C3.08926 3.6011 3.08926 3.62364 3.08926 4.85218ZM59.0049 3.82652C59.0821 3.89415 59.1464 4.34499 59.1464 4.84091C59.1464 5.33684 59.0821 5.78768 59.0049 5.8553C58.9276 5.92293 58.6573 6.00183 58.3999 6.04691L57.9236 6.11454V4.84091V3.56729L58.3999 3.63491C58.6573 3.68 58.9276 3.7589 59.0049 3.82652ZM50.7668 9.37186C50.8183 9.94668 50.8569 11.4795 50.8827 12.7757L50.9084 15.1426L48.7846 15.8301C47.6132 16.2021 46.5963 16.5515 46.5191 16.5966C46.2745 16.7206 46.1844 17.2503 46.3389 17.5884C46.5062 17.9378 46.8538 18.0618 48.7846 18.4788C49.3895 18.6141 50.0975 18.7719 50.3678 18.8282L50.8569 18.9409L50.7797 20.1469C50.3421 26.9208 50.0589 31.5983 49.9945 33.1988L49.9044 35.1261L48.4885 35.7348C46.7379 36.4899 46.3389 36.7604 46.3389 37.2113C46.3389 37.3916 46.3904 37.6283 46.4547 37.741C46.532 37.8537 47.3172 38.2144 48.2053 38.5525L49.84 39.1611L49.7628 39.6571C49.7242 39.9276 49.6856 41.2575 49.6856 42.6101V45.0784H30.1332H10.5807L10.5035 44.7741C10.246 43.5794 9.96286 32.2633 10.1946 32.0604C10.2332 32.0153 11.2372 31.6659 12.4214 31.2827C13.5927 30.8882 14.674 30.4937 14.8156 30.3923C15.1245 30.1556 15.1374 29.4793 14.8284 29.2088C14.6997 29.1074 13.6828 28.8031 12.4343 28.5213L10.2718 28.0254L10.349 24.0129C10.452 19.2002 10.6579 14.0831 10.8124 12.2234C10.8768 11.4795 10.9411 10.2961 10.9411 9.59728V8.33493H30.8154H50.6896L50.7668 9.37186ZM6.0498 45.7096C6.21713 46.0815 6.21713 51.0633 6.0498 51.4353C5.86959 51.8523 5.20025 51.8523 5.02005 51.4353C4.94281 51.2775 4.89133 49.9926 4.89133 48.5724C4.89133 47.1523 4.94281 45.8674 5.02005 45.7096C5.11015 45.4842 5.226 45.4165 5.53492 45.4165C5.84385 45.4165 5.9597 45.4842 6.0498 45.7096ZM55.9928 45.7096C56.0701 45.8674 56.1215 47.1523 56.1215 48.5724C56.1215 49.9926 56.0701 51.2775 55.9928 51.4353C55.8126 51.8523 55.1433 51.8523 54.9631 51.4353C54.8858 51.2775 54.8344 49.9926 54.8344 48.5724C54.8344 47.1523 54.8858 45.8674 54.9631 45.7096C55.0532 45.4842 55.169 45.4165 55.4779 45.4165C55.7869 45.4165 55.9027 45.4842 55.9928 45.7096ZM53.0323 48.5724V50.4885H30.5064H7.98059V48.5724V46.6564H30.5064H53.0323V48.5724ZM3.08926 48.5837V49.8461L2.613 49.7784C1.99515 49.6883 1.90504 49.5868 1.82781 48.9218C1.71196 47.7835 1.9694 47.3552 2.80608 47.3439C3.08926 47.3326 3.08926 47.3552 3.08926 48.5837ZM59.0049 47.558C59.0821 47.6257 59.1464 48.0765 59.1464 48.5724C59.1464 49.0684 59.0821 49.5192 59.0049 49.5868C58.9276 49.6544 58.6573 49.7333 58.3999 49.7784L57.9236 49.8461V48.5724V47.2988L58.3999 47.3664C58.6573 47.4115 58.9276 47.4904 59.0049 47.558Z" fill="url(#paint0_linear_97_7323)"/><path d="M12.5616 9.49585C12.2656 9.68746 12.1368 10.2623 12.021 11.8853C11.9438 13.1927 11.9438 13.2716 12.2141 13.5083C12.5487 13.8014 13.128 13.8126 13.5141 13.5421C13.7716 13.3505 13.8231 13.1589 13.9775 11.7162C14.0676 10.7582 14.0934 10.003 14.029 9.84525C13.8231 9.38314 13.0379 9.19153 12.5616 9.49585Z" fill="#8A5C2A"/><path d="M12.5616 9.49585C12.2656 9.68746 12.1368 10.2623 12.021 11.8853C11.9438 13.1927 11.9438 13.2716 12.2141 13.5083C12.5487 13.8014 13.128 13.8126 13.5141 13.5421C13.7716 13.3505 13.8231 13.1589 13.9775 11.7162C14.0676 10.7582 14.0934 10.003 14.029 9.84525C13.8231 9.38314 13.0379 9.19153 12.5616 9.49585Z" fill="url(#paint1_linear_97_7323)"/><path d="M14.6109 16.1683C14.2119 16.5064 14.1862 17.0362 14.5466 17.3517C14.804 17.5772 14.9714 17.5772 27.4185 17.5772C39.8656 17.5772 40.033 17.5772 40.2904 17.3517C40.6766 17.0136 40.638 16.4162 40.2132 16.1232C39.8656 15.8865 39.8142 15.8865 27.3928 15.8865H14.9199L14.6109 16.1683Z" fill="#8A5C2A"/><path d="M14.6109 16.1683C14.2119 16.5064 14.1862 17.0362 14.5466 17.3517C14.804 17.5772 14.9714 17.5772 27.4185 17.5772C39.8656 17.5772 40.033 17.5772 40.2904 17.3517C40.6766 17.0136 40.638 16.4162 40.2132 16.1232C39.8656 15.8865 39.8142 15.8865 27.3928 15.8865H14.9199L14.6109 16.1683Z" fill="url(#paint2_linear_97_7323)"/><path d="M14.6109 20.2258C14.2119 20.564 14.1862 21.0937 14.5466 21.4093C14.804 21.6347 14.9714 21.6347 30.5078 21.6347C46.0442 21.6347 46.2115 21.6347 46.4689 21.4093C46.8293 21.0937 46.8036 20.564 46.4046 20.2258L46.0956 19.9441H30.5078H14.9199L14.6109 20.2258Z" fill="#8A5C2A"/><path d="M14.6109 20.2258C14.2119 20.564 14.1862 21.0937 14.5466 21.4093C14.804 21.6347 14.9714 21.6347 30.5078 21.6347C46.0442 21.6347 46.2115 21.6347 46.4689 21.4093C46.8293 21.0937 46.8036 20.564 46.4046 20.2258L46.0956 19.9441H30.5078H14.9199L14.6109 20.2258Z" fill="url(#paint3_linear_97_7323)"/><path d="M14.6109 24.2835C14.2119 24.6216 14.1862 25.1514 14.5466 25.4669C14.804 25.6924 14.9714 25.6924 30.5078 25.6924C46.0442 25.6924 46.2115 25.6924 46.4689 25.4669C46.8293 25.1514 46.8036 24.6216 46.4046 24.2835L46.0956 24.0017H30.5078H14.9199L14.6109 24.2835Z" fill="#8A5C2A"/><path d="M14.6109 24.2835C14.2119 24.6216 14.1862 25.1514 14.5466 25.4669C14.804 25.6924 14.9714 25.6924 30.5078 25.6924C46.0442 25.6924 46.2115 25.6924 46.4689 25.4669C46.8293 25.1514 46.8036 24.6216 46.4046 24.2835L46.0956 24.0017H30.5078H14.9199L14.6109 24.2835Z" fill="url(#paint4_linear_97_7323)"/><path d="M21.8164 28.1946C21.4432 28.3749 21.3659 28.5102 21.3659 28.9723C21.3659 29.8063 20.4134 29.75 34.019 29.75C46.0414 29.75 46.2087 29.75 46.4662 29.5245C46.8266 29.209 46.8008 28.6792 46.4018 28.3411L46.0929 28.0593H34.0834C25.3691 28.0706 22.0095 28.1044 21.8164 28.1946Z" fill="#8A5C2A"/><path d="M21.8164 28.1946C21.4432 28.3749 21.3659 28.5102 21.3659 28.9723C21.3659 29.8063 20.4134 29.75 34.019 29.75C46.0414 29.75 46.2087 29.75 46.4662 29.5245C46.8266 29.209 46.8008 28.6792 46.4018 28.3411L46.0929 28.0593H34.0834C25.3691 28.0706 22.0095 28.1044 21.8164 28.1946Z" fill="url(#paint5_linear_97_7323)"/><path d="M14.6109 32.3985C14.2119 32.7366 14.1862 33.2663 14.5466 33.5819C14.804 33.8073 14.9714 33.8073 30.5078 33.8073C46.0442 33.8073 46.2115 33.8073 46.4689 33.5819C46.8293 33.2663 46.8036 32.7366 46.4046 32.3985L46.0956 32.1167H30.5078H14.9199L14.6109 32.3985Z" fill="#8A5C2A"/><path d="M14.6109 32.3985C14.2119 32.7366 14.1862 33.2663 14.5466 33.5819C14.804 33.8073 14.9714 33.8073 30.5078 33.8073C46.0442 33.8073 46.2115 33.8073 46.4689 33.5819C46.8293 33.2663 46.8036 32.7366 46.4046 32.3985L46.0956 32.1167H30.5078H14.9199L14.6109 32.3985Z" fill="url(#paint6_linear_97_7323)"/><path d="M14.6109 36.4448C14.2119 36.7942 14.1862 37.324 14.5466 37.6396C14.804 37.865 14.9714 37.865 28.0621 37.865H41.3073L41.5776 37.617C41.8994 37.3127 41.9123 36.8393 41.5905 36.5012L41.3459 36.2307L28.1393 36.1969L14.9199 36.1743L14.6109 36.4448Z" fill="#8A5C2A"/><path d="M14.6109 36.4448C14.2119 36.7942 14.1862 37.324 14.5466 37.6396C14.804 37.865 14.9714 37.865 28.0621 37.865H41.3073L41.5776 37.617C41.8994 37.3127 41.9123 36.8393 41.5905 36.5012L41.3459 36.2307L28.1393 36.1969L14.9199 36.1743L14.6109 36.4448Z" fill="url(#paint7_linear_97_7323)"/><path d="M14.6109 40.5137C14.2119 40.8518 14.1862 41.3815 14.5466 41.6971C14.804 41.9225 14.9714 41.9225 30.5078 41.9225C46.0442 41.9225 46.2115 41.9225 46.4689 41.6971C46.8293 41.3815 46.8036 40.8518 46.4046 40.5137L46.0956 40.2319H30.5078H14.9199L14.6109 40.5137Z" fill="#8A5C2A"/><path d="M14.6109 40.5137C14.2119 40.8518 14.1862 41.3815 14.5466 41.6971C14.804 41.9225 14.9714 41.9225 30.5078 41.9225C46.0442 41.9225 46.2115 41.9225 46.4689 41.6971C46.8293 41.3815 46.8036 40.8518 46.4046 40.5137L46.0956 40.2319H30.5078H14.9199L14.6109 40.5137Z" fill="url(#paint8_linear_97_7323)"/><defs><linearGradient id="paint0_linear_97_7323" x1="5.39618" y1="43.2094" x2="46.9688" y2="3.16236" gradientUnits="userSpaceOnUse"><stop stop-color="#8A5C2A"/><stop offset="0.514222" stop-color="#C2A650" stop-opacity="0.81"/><stop offset="0.619294" stop-color="#D1BA5A" stop-opacity="0.92"/><stop offset="0.697308" stop-color="#C8AD53" stop-opacity="0.86"/><stop offset="1" stop-color="#A37C36"/></linearGradient><linearGradient id="paint1_linear_97_7323" x1="12.1613" y1="12.8986" x2="14.524" y2="11.9504" gradientUnits="userSpaceOnUse"><stop stop-color="#8A5C2A"/><stop offset="0.514222" stop-color="#C2A650" stop-opacity="0.81"/><stop offset="0.619294" stop-color="#D1BA5A" stop-opacity="0.92"/><stop offset="0.697308" stop-color="#C8AD53" stop-opacity="0.86"/><stop offset="1" stop-color="#A37C36"/></linearGradient><linearGradient id="paint2_linear_97_7323" x1="16.6159" y1="17.2542" x2="16.8157" y2="14.6359" gradientUnits="userSpaceOnUse"><stop stop-color="#8A5C2A"/><stop offset="0.514222" stop-color="#C2A650" stop-opacity="0.81"/><stop offset="0.619294" stop-color="#D1BA5A" stop-opacity="0.92"/><stop offset="0.697308" stop-color="#C8AD53" stop-opacity="0.86"/><stop offset="1" stop-color="#A37C36"/></linearGradient><linearGradient id="paint3_linear_97_7323" x1="17.1612" y1="21.3117" x2="17.3233" y2="18.6882" gradientUnits="userSpaceOnUse"><stop stop-color="#8A5C2A"/><stop offset="0.514222" stop-color="#C2A650" stop-opacity="0.81"/><stop offset="0.619294" stop-color="#D1BA5A" stop-opacity="0.92"/><stop offset="0.697308" stop-color="#C8AD53" stop-opacity="0.86"/><stop offset="1" stop-color="#A37C36"/></linearGradient><linearGradient id="paint4_linear_97_7323" x1="17.1612" y1="25.3694" x2="17.3233" y2="22.7458" gradientUnits="userSpaceOnUse"><stop stop-color="#8A5C2A"/><stop offset="0.514222" stop-color="#C2A650" stop-opacity="0.81"/><stop offset="0.619294" stop-color="#D1BA5A" stop-opacity="0.92"/><stop offset="0.697308" stop-color="#C8AD53" stop-opacity="0.86"/><stop offset="1" stop-color="#A37C36"/></linearGradient><linearGradient id="paint5_linear_97_7323" x1="23.5952" y1="29.4276" x2="23.8022" y2="26.8092" gradientUnits="userSpaceOnUse"><stop stop-color="#8A5C2A"/><stop offset="0.514222" stop-color="#C2A650" stop-opacity="0.81"/><stop offset="0.619294" stop-color="#D1BA5A" stop-opacity="0.92"/><stop offset="0.697308" stop-color="#C8AD53" stop-opacity="0.86"/><stop offset="1" stop-color="#A37C36"/></linearGradient><linearGradient id="paint6_linear_97_7323" x1="17.1612" y1="33.4843" x2="17.3233" y2="30.8608" gradientUnits="userSpaceOnUse"><stop stop-color="#8A5C2A"/><stop offset="0.514222" stop-color="#C2A650" stop-opacity="0.81"/><stop offset="0.619294" stop-color="#D1BA5A" stop-opacity="0.92"/><stop offset="0.697308" stop-color="#C8AD53" stop-opacity="0.86"/><stop offset="1" stop-color="#A37C36"/></linearGradient><linearGradient id="paint7_linear_97_7323" x1="16.728" y1="37.542" x2="16.9188" y2="34.9223" gradientUnits="userSpaceOnUse"><stop stop-color="#8A5C2A"/><stop offset="0.514222" stop-color="#C2A650" stop-opacity="0.81"/><stop offset="0.619294" stop-color="#D1BA5A" stop-opacity="0.92"/><stop offset="0.697308" stop-color="#C8AD53" stop-opacity="0.86"/><stop offset="1" stop-color="#A37C36"/></linearGradient><linearGradient id="paint8_linear_97_7323" x1="17.1612" y1="41.5996" x2="17.3233" y2="38.976" gradientUnits="userSpaceOnUse"><stop stop-color="#8A5C2A"/><stop offset="0.514222" stop-color="#C2A650" stop-opacity="0.81"/><stop offset="0.619294" stop-color="#D1BA5A" stop-opacity="0.92"/><stop offset="0.697308" stop-color="#C8AD53" stop-opacity="0.86"/><stop offset="1" stop-color="#A37C36"/></linearGradient></defs></svg>