<svg width="79" height="64" viewBox="0 0 79 64" fill="none" xmlns="http://www.w3.org/2000/svg">
<path d="M39.6141 0.217083C35.7793 0.935017 30.5787 2.59851 23.9772 5.2251C20.1424 6.74851 19.407 7.13374 18.689 7.93923C17.6909 9.07741 17.3758 10.0055 17.3933 11.6865C17.3933 12.9472 17.4633 13.315 17.8485 14.0679C18.3388 15.0135 19.3544 16.0291 20.2825 16.5019C20.5802 16.6595 21.2631 16.8346 21.7884 16.8871C22.5764 16.9747 22.7165 17.0447 22.6114 17.2723C21.2631 20.4943 21.1405 24.1365 22.2962 27.2533C23.7321 31.1057 27.1817 34.17 31.2966 35.2557C32.8376 35.6759 36.0595 35.6759 37.6004 35.2557C39.1589 34.8354 41.3302 33.7498 42.5384 32.8042C44.4996 31.2457 46.3207 28.5491 46.916 26.3253C47.0736 25.6949 47.1962 25.5373 47.4063 25.6249C49.7177 26.6055 52.5544 26.7455 54.7958 25.9926C55.5312 25.7299 56.5468 25.2747 57.0371 24.977C57.5274 24.6793 58.2979 24.2941 58.7706 24.119C59.7162 23.7512 61.5898 23.5061 61.8525 23.7162C61.9576 23.7863 62.2552 24.3291 62.5529 24.8894C63.0782 25.9576 64.0063 26.7981 65.1445 27.2183C65.5297 27.3584 67.4384 27.4284 71.1156 27.4284C76.2637 27.446 76.5438 27.4284 77.1567 27.0782C77.5069 26.8856 77.9447 26.5179 78.1373 26.2552C78.47 25.8 78.4875 25.4673 78.54 14.5582L78.5751 3.35147L78.1898 2.75611C77.9622 2.44092 77.5594 2.00316 77.2968 1.81054C76.824 1.46033 76.5789 1.44282 70.6428 1.39029C67.2457 1.35527 64.2164 1.39029 63.9012 1.44282C63.551 1.51286 63.0432 1.82805 62.623 2.24831L61.9401 2.93122L61.2396 2.58101C59.5586 1.72299 57.65 1.37278 50.5757 0.654846C43.2913 -0.0805969 41.6103 -0.150639 39.6141 0.217083ZM49.8578 3.52657C57.685 4.34957 58.7006 4.54218 60.7668 5.57531L61.7649 6.08311V13.42V20.7394L60.3291 20.8445C58.6306 20.9671 57.3348 21.3873 55.5487 22.3679C53.8327 23.3135 52.1867 23.6637 50.6458 23.4185C48.562 23.0858 46.7409 21.9477 45.6202 20.3017C43.3614 16.9046 41.4352 16.5894 36.5673 18.7432C34.2209 19.7763 33.9407 19.8114 33.3278 18.9884C32.68 18.1128 33.0302 17.6751 38.2133 13.1924C41.6453 10.2156 42.8711 9.44513 45.0599 8.8848C46.6884 8.46454 47.0561 8.18438 47.0561 7.32636C47.0561 6.52087 46.6709 5.96054 46.023 5.82045C44.9548 5.59282 41.8905 6.59092 40.157 7.7291C39.474 8.20189 36.9175 9.18248 31.0865 11.2662C22.5063 14.3306 22.4188 14.3481 21.3682 13.6652C20.8603 13.3325 20.265 12.2118 20.265 11.5989C20.265 10.9861 20.8603 9.86539 21.3506 9.5502C22.1561 9.02488 28.0572 6.74851 32.4348 5.27763C36.3747 3.94683 40.5947 2.86118 42.1532 2.77362C42.2932 2.77362 45.7603 3.10632 49.8578 3.52657ZM75.7734 14.4006V24.4692H70.958C66.773 24.4692 66.0725 24.4341 65.6873 24.189C64.7417 23.5586 64.7417 23.5761 64.7417 14.8034C64.7417 10.3382 64.7943 6.17066 64.8643 5.50526L64.9694 4.33206H70.3626H75.7734V14.4006ZM31.8219 14.7858C30.5262 16.2742 30.1584 17.0447 30.176 18.3405C30.176 19.3211 30.281 19.6713 30.9114 20.9145C31.7344 22.508 32.6099 23.366 33.573 23.5061C34.8513 23.7162 35.4291 24.2766 34.7637 24.7143C34.5361 24.8544 34.3259 24.8194 33.9407 24.5917C33.2578 24.189 32.5049 24.2065 32.0321 24.6443C31.2091 25.4147 31.3842 26.5179 32.4173 27.2358C32.75 27.4635 33.0652 27.8312 33.1177 28.0588C33.1878 28.304 33.4679 28.6192 33.7656 28.7592C34.6586 29.232 35.6217 28.8293 35.9194 27.8837C35.9719 27.6911 36.3046 27.3584 36.6373 27.1483C37.9331 26.2903 38.4409 24.0139 37.6354 22.6481C37.4253 22.2804 37.2502 21.9301 37.2502 21.8426C37.2502 21.685 39.8943 20.5468 40.6823 20.3717C41.4702 20.1966 42.0831 20.5118 42.731 21.4398C43.0287 21.8951 43.554 22.5605 43.8867 22.9282L44.4821 23.5936L44.1844 24.7668C42.8711 30.1076 37.688 33.5571 32.5924 32.4715C28.7576 31.6485 25.7633 28.8118 24.8177 25.0645C24.2049 22.7006 24.45 20.4417 25.5532 18.2179C26.5162 16.2392 26.8665 15.9591 29.7207 14.9259C31.1215 14.4181 32.3297 13.9979 32.3998 13.9804C32.4873 13.9804 32.2247 14.3306 31.8219 14.7858Z" fill="#151515"/>
<path d="M39.6141 0.217083C35.7793 0.935017 30.5787 2.59851 23.9772 5.2251C20.1424 6.74851 19.407 7.13374 18.689 7.93923C17.6909 9.07741 17.3758 10.0055 17.3933 11.6865C17.3933 12.9472 17.4633 13.315 17.8485 14.0679C18.3388 15.0135 19.3544 16.0291 20.2825 16.5019C20.5802 16.6595 21.2631 16.8346 21.7884 16.8871C22.5764 16.9747 22.7165 17.0447 22.6114 17.2723C21.2631 20.4943 21.1405 24.1365 22.2962 27.2533C23.7321 31.1057 27.1817 34.17 31.2966 35.2557C32.8376 35.6759 36.0595 35.6759 37.6004 35.2557C39.1589 34.8354 41.3302 33.7498 42.5384 32.8042C44.4996 31.2457 46.3207 28.5491 46.916 26.3253C47.0736 25.6949 47.1962 25.5373 47.4063 25.6249C49.7177 26.6055 52.5544 26.7455 54.7958 25.9926C55.5312 25.7299 56.5468 25.2747 57.0371 24.977C57.5274 24.6793 58.2979 24.2941 58.7706 24.119C59.7162 23.7512 61.5898 23.5061 61.8525 23.7162C61.9576 23.7863 62.2552 24.3291 62.5529 24.8894C63.0782 25.9576 64.0063 26.7981 65.1445 27.2183C65.5297 27.3584 67.4384 27.4284 71.1156 27.4284C76.2637 27.446 76.5438 27.4284 77.1567 27.0782C77.5069 26.8856 77.9447 26.5179 78.1373 26.2552C78.47 25.8 78.4875 25.4673 78.54 14.5582L78.5751 3.35147L78.1898 2.75611C77.9622 2.44092 77.5594 2.00316 77.2968 1.81054C76.824 1.46033 76.5789 1.44282 70.6428 1.39029C67.2457 1.35527 64.2164 1.39029 63.9012 1.44282C63.551 1.51286 63.0432 1.82805 62.623 2.24831L61.9401 2.93122L61.2396 2.58101C59.5586 1.72299 57.65 1.37278 50.5757 0.654846C43.2913 -0.0805969 41.6103 -0.150639 39.6141 0.217083ZM49.8578 3.52657C57.685 4.34957 58.7006 4.54218 60.7668 5.57531L61.7649 6.08311V13.42V20.7394L60.3291 20.8445C58.6306 20.9671 57.3348 21.3873 55.5487 22.3679C53.8327 23.3135 52.1867 23.6637 50.6458 23.4185C48.562 23.0858 46.7409 21.9477 45.6202 20.3017C43.3614 16.9046 41.4352 16.5894 36.5673 18.7432C34.2209 19.7763 33.9407 19.8114 33.3278 18.9884C32.68 18.1128 33.0302 17.6751 38.2133 13.1924C41.6453 10.2156 42.8711 9.44513 45.0599 8.8848C46.6884 8.46454 47.0561 8.18438 47.0561 7.32636C47.0561 6.52087 46.6709 5.96054 46.023 5.82045C44.9548 5.59282 41.8905 6.59092 40.157 7.7291C39.474 8.20189 36.9175 9.18248 31.0865 11.2662C22.5063 14.3306 22.4188 14.3481 21.3682 13.6652C20.8603 13.3325 20.265 12.2118 20.265 11.5989C20.265 10.9861 20.8603 9.86539 21.3506 9.5502C22.1561 9.02488 28.0572 6.74851 32.4348 5.27763C36.3747 3.94683 40.5947 2.86118 42.1532 2.77362C42.2932 2.77362 45.7603 3.10632 49.8578 3.52657ZM75.7734 14.4006V24.4692H70.958C66.773 24.4692 66.0725 24.4341 65.6873 24.189C64.7417 23.5586 64.7417 23.5761 64.7417 14.8034C64.7417 10.3382 64.7943 6.17066 64.8643 5.50526L64.9694 4.33206H70.3626H75.7734V14.4006ZM31.8219 14.7858C30.5262 16.2742 30.1584 17.0447 30.176 18.3405C30.176 19.3211 30.281 19.6713 30.9114 20.9145C31.7344 22.508 32.6099 23.366 33.573 23.5061C34.8513 23.7162 35.4291 24.2766 34.7637 24.7143C34.5361 24.8544 34.3259 24.8194 33.9407 24.5917C33.2578 24.189 32.5049 24.2065 32.0321 24.6443C31.2091 25.4147 31.3842 26.5179 32.4173 27.2358C32.75 27.4635 33.0652 27.8312 33.1177 28.0588C33.1878 28.304 33.4679 28.6192 33.7656 28.7592C34.6586 29.232 35.6217 28.8293 35.9194 27.8837C35.9719 27.6911 36.3046 27.3584 36.6373 27.1483C37.9331 26.2903 38.4409 24.0139 37.6354 22.6481C37.4253 22.2804 37.2502 21.9301 37.2502 21.8426C37.2502 21.685 39.8943 20.5468 40.6823 20.3717C41.4702 20.1966 42.0831 20.5118 42.731 21.4398C43.0287 21.8951 43.554 22.5605 43.8867 22.9282L44.4821 23.5936L44.1844 24.7668C42.8711 30.1076 37.688 33.5571 32.5924 32.4715C28.7576 31.6485 25.7633 28.8118 24.8177 25.0645C24.2049 22.7006 24.45 20.4417 25.5532 18.2179C26.5162 16.2392 26.8665 15.9591 29.7207 14.9259C31.1215 14.4181 32.3297 13.9979 32.3998 13.9804C32.4873 13.9804 32.2247 14.3306 31.8219 14.7858Z" fill="url(#paint0_linear_97_7350)"/>
<path d="M68.2442 16.3268C67.3161 16.6244 66.4581 17.3949 65.9503 18.3755C65.4075 19.4436 65.5301 21.3348 66.1955 22.3329C66.9484 23.4711 67.894 24.0139 69.3123 24.0839C70.7307 24.1715 71.7638 23.7687 72.6043 22.7882C74.548 20.5818 73.4098 16.8871 70.5731 16.2217C69.6801 16.0116 69.1723 16.0466 68.2442 16.3268ZM70.0128 19.2335C70.9408 19.7238 70.6081 21.1247 69.575 21.1422C68.6645 21.1422 68.2442 19.8289 68.9796 19.3211C69.4524 18.9884 69.5575 18.9884 70.0128 19.2335Z" fill="#151515"/>
<path d="M68.2442 16.3268C67.3161 16.6244 66.4581 17.3949 65.9503 18.3755C65.4075 19.4436 65.5301 21.3348 66.1955 22.3329C66.9484 23.4711 67.894 24.0139 69.3123 24.0839C70.7307 24.1715 71.7638 23.7687 72.6043 22.7882C74.548 20.5818 73.4098 16.8871 70.5731 16.2217C69.6801 16.0116 69.1723 16.0466 68.2442 16.3268ZM70.0128 19.2335C70.9408 19.7238 70.6081 21.1247 69.575 21.1422C68.6645 21.1422 68.2442 19.8289 68.9796 19.3211C69.4524 18.9884 69.5575 18.9884 70.0128 19.2335Z" fill="url(#paint1_linear_97_7350)"/>
<path d="M1.52975 36.9367C1.21456 37.1643 0.776796 37.567 0.58418 37.8297C0.216459 38.32 0.216459 38.4776 0.181438 49.3867L0.128906 60.4533L0.531648 61.1537C0.776796 61.609 1.17954 61.9942 1.70485 62.2569C2.45781 62.6421 2.59789 62.6421 8.48143 62.6421C15.0829 62.6421 15.2755 62.6071 16.2036 61.609L16.6939 61.0662L18.0422 61.609C20.1084 62.397 21.1766 62.5721 28.7586 63.3601C33.9943 63.8854 36.1831 64.043 37.4263 63.9904C38.8447 63.9029 40.5782 63.5001 49.281 61.1712C54.8843 59.6828 59.7698 58.2995 60.1375 58.1069C60.978 57.6691 61.9586 56.6535 62.4839 55.6379C62.8341 54.99 62.9042 54.5873 62.9042 53.3615C62.9042 50.9976 61.9936 49.4742 59.9799 48.4586C58.3339 47.6531 57.4234 47.7056 52.678 48.9839C50.5242 49.5618 48.6156 50.0696 48.458 50.1221C48.1953 50.2096 48.1253 50.0696 48.0377 49.2641C47.8626 47.9508 47.0221 46.6025 45.9365 45.9371C44.8683 45.2717 43.45 45.1491 41.6114 45.5694C40.9109 45.727 39.9654 45.8495 39.5101 45.867C38.0917 45.867 37.8816 45.6744 35.5877 42.1198C34.2044 39.9485 31.6829 38.2324 29.1088 37.6896C26.5173 37.1468 24.6086 37.4795 21.5793 39.0029C19.4956 40.0535 17.8145 40.5438 17.0441 40.3337C16.8164 40.2637 16.5013 39.8434 16.1686 39.1605C15.6432 38.0573 14.7327 37.2168 13.5595 36.7791C13.1743 36.639 11.2656 36.5689 7.55337 36.5689C2.17764 36.5514 2.09009 36.5514 1.52975 36.9367ZM13.1918 40.1236L13.7871 40.7189V50.1921V59.6653H8.35886H2.93059V49.5968V39.5282H7.7635H12.5964L13.1918 40.1236ZM30.1595 41.2618C31.5428 41.9097 32.716 43.0478 33.6966 44.7113C34.7822 46.5499 35.7453 47.6706 36.6734 48.231C37.3738 48.6337 37.7415 48.7213 39.0898 48.7738C40.1405 48.8263 41.1561 48.7563 42.0491 48.5637C43.8702 48.1959 44.0278 48.1959 44.6232 48.7913C45.201 49.3691 45.2711 49.9995 44.8683 50.6299C44.5356 51.1377 44.2379 51.2603 41.3662 52.0483C38.0742 52.9413 37.6715 53.1164 37.4263 53.7118C37.0411 54.6573 37.689 55.813 38.6171 55.813C38.8447 55.813 43.2048 54.6923 48.2829 53.344C58.3164 50.6474 58.2814 50.6474 59.2795 51.5755C60.5928 52.8012 60.155 54.955 58.4565 55.6204C58.2113 55.7255 53.6761 56.9512 48.3704 58.3696C41.4888 60.2082 38.3719 60.9611 37.4263 61.0136C35.6578 61.1362 22.4023 59.7704 20.6162 59.2976C19.8983 59.105 18.7776 58.7023 18.1297 58.4046L16.939 57.8618V50.5599V43.258L18.2173 43.1529C19.8633 43.0128 20.9139 42.6801 23.1553 41.612C25.9394 40.2812 27.8831 40.1936 30.1595 41.2618Z" fill="#151515"/>
<path d="M1.52975 36.9367C1.21456 37.1643 0.776796 37.567 0.58418 37.8297C0.216459 38.32 0.216459 38.4776 0.181438 49.3867L0.128906 60.4533L0.531648 61.1537C0.776796 61.609 1.17954 61.9942 1.70485 62.2569C2.45781 62.6421 2.59789 62.6421 8.48143 62.6421C15.0829 62.6421 15.2755 62.6071 16.2036 61.609L16.6939 61.0662L18.0422 61.609C20.1084 62.397 21.1766 62.5721 28.7586 63.3601C33.9943 63.8854 36.1831 64.043 37.4263 63.9904C38.8447 63.9029 40.5782 63.5001 49.281 61.1712C54.8843 59.6828 59.7698 58.2995 60.1375 58.1069C60.978 57.6691 61.9586 56.6535 62.4839 55.6379C62.8341 54.99 62.9042 54.5873 62.9042 53.3615C62.9042 50.9976 61.9936 49.4742 59.9799 48.4586C58.3339 47.6531 57.4234 47.7056 52.678 48.9839C50.5242 49.5618 48.6156 50.0696 48.458 50.1221C48.1953 50.2096 48.1253 50.0696 48.0377 49.2641C47.8626 47.9508 47.0221 46.6025 45.9365 45.9371C44.8683 45.2717 43.45 45.1491 41.6114 45.5694C40.9109 45.727 39.9654 45.8495 39.5101 45.867C38.0917 45.867 37.8816 45.6744 35.5877 42.1198C34.2044 39.9485 31.6829 38.2324 29.1088 37.6896C26.5173 37.1468 24.6086 37.4795 21.5793 39.0029C19.4956 40.0535 17.8145 40.5438 17.0441 40.3337C16.8164 40.2637 16.5013 39.8434 16.1686 39.1605C15.6432 38.0573 14.7327 37.2168 13.5595 36.7791C13.1743 36.639 11.2656 36.5689 7.55337 36.5689C2.17764 36.5514 2.09009 36.5514 1.52975 36.9367ZM13.1918 40.1236L13.7871 40.7189V50.1921V59.6653H8.35886H2.93059V49.5968V39.5282H7.7635H12.5964L13.1918 40.1236ZM30.1595 41.2618C31.5428 41.9097 32.716 43.0478 33.6966 44.7113C34.7822 46.5499 35.7453 47.6706 36.6734 48.231C37.3738 48.6337 37.7415 48.7213 39.0898 48.7738C40.1405 48.8263 41.1561 48.7563 42.0491 48.5637C43.8702 48.1959 44.0278 48.1959 44.6232 48.7913C45.201 49.3691 45.2711 49.9995 44.8683 50.6299C44.5356 51.1377 44.2379 51.2603 41.3662 52.0483C38.0742 52.9413 37.6715 53.1164 37.4263 53.7118C37.0411 54.6573 37.689 55.813 38.6171 55.813C38.8447 55.813 43.2048 54.6923 48.2829 53.344C58.3164 50.6474 58.2814 50.6474 59.2795 51.5755C60.5928 52.8012 60.155 54.955 58.4565 55.6204C58.2113 55.7255 53.6761 56.9512 48.3704 58.3696C41.4888 60.2082 38.3719 60.9611 37.4263 61.0136C35.6578 61.1362 22.4023 59.7704 20.6162 59.2976C19.8983 59.105 18.7776 58.7023 18.1297 58.4046L16.939 57.8618V50.5599V43.258L18.2173 43.1529C19.8633 43.0128 20.9139 42.6801 23.1553 41.612C25.9394 40.2812 27.8831 40.1936 30.1595 41.2618Z" fill="url(#paint2_linear_97_7350)"/>
<path d="M7.30841 40.5964C6.4504 40.9466 5.67994 41.6995 5.27719 42.5751C3.9639 45.3943 5.80251 48.336 8.88436 48.3535C10.5654 48.3535 11.8086 47.5831 12.4915 46.1122C13.332 44.2911 12.7892 42.1548 11.1782 41.0166C10.5304 40.5613 10.2677 40.4913 9.09449 40.4563C8.35905 40.4213 7.55356 40.4913 7.30841 40.5964ZM9.63732 43.6957C10.0401 44.0459 10.0225 44.6938 9.58478 45.1316C9.18204 45.5343 9.00694 45.5518 8.48162 45.2892C7.69365 44.8689 7.60609 44.116 8.289 43.5732C8.74428 43.2054 9.09449 43.2405 9.63732 43.6957Z" fill="#151515"/>
<path d="M7.30841 40.5964C6.4504 40.9466 5.67994 41.6995 5.27719 42.5751C3.9639 45.3943 5.80251 48.336 8.88436 48.3535C10.5654 48.3535 11.8086 47.5831 12.4915 46.1122C13.332 44.2911 12.7892 42.1548 11.1782 41.0166C10.5304 40.5613 10.2677 40.4913 9.09449 40.4563C8.35905 40.4213 7.55356 40.4913 7.30841 40.5964ZM9.63732 43.6957C10.0401 44.0459 10.0225 44.6938 9.58478 45.1316C9.18204 45.5343 9.00694 45.5518 8.48162 45.2892C7.69365 44.8689 7.60609 44.116 8.289 43.5732C8.74428 43.2054 9.09449 43.2405 9.63732 43.6957Z" fill="url(#paint3_linear_97_7350)"/>
<defs>
<linearGradient id="paint0_linear_97_7350" x1="22.8038" y1="28.7755" x2="48.697" y2="-8.78317" gradientUnits="userSpaceOnUse">
<stop stop-color="#8A5C2A"/>
<stop offset="0.514222" stop-color="#C2A650" stop-opacity="0.81"/>
<stop offset="0.619294" stop-color="#D1BA5A" stop-opacity="0.92"/>
<stop offset="0.697308" stop-color="#C8AD53" stop-opacity="0.86"/>
<stop offset="1" stop-color="#A37C36"/>
</linearGradient>
<linearGradient id="paint1_linear_97_7350" x1="66.3137" y1="22.5656" x2="72.456" y2="17.4153" gradientUnits="userSpaceOnUse">
<stop stop-color="#8A5C2A"/>
<stop offset="0.514222" stop-color="#C2A650" stop-opacity="0.81"/>
<stop offset="0.619294" stop-color="#D1BA5A" stop-opacity="0.92"/>
<stop offset="0.697308" stop-color="#C8AD53" stop-opacity="0.86"/>
<stop offset="1" stop-color="#A37C36"/>
</linearGradient>
<linearGradient id="paint2_linear_97_7350" x1="5.68096" y1="58.7586" x2="23.1412" y2="25.0688" gradientUnits="userSpaceOnUse">
<stop stop-color="#8A5C2A"/>
<stop offset="0.514222" stop-color="#C2A650" stop-opacity="0.81"/>
<stop offset="0.619294" stop-color="#D1BA5A" stop-opacity="0.92"/>
<stop offset="0.697308" stop-color="#C8AD53" stop-opacity="0.86"/>
<stop offset="1" stop-color="#A37C36"/>
</linearGradient>
<linearGradient id="paint3_linear_97_7350" x1="5.55841" y1="46.8431" x2="11.644" y2="41.6268" gradientUnits="userSpaceOnUse">
<stop stop-color="#8A5C2A"/>
<stop offset="0.514222" stop-color="#C2A650" stop-opacity="0.81"/>
<stop offset="0.619294" stop-color="#D1BA5A" stop-opacity="0.92"/>
<stop offset="0.697308" stop-color="#C8AD53" stop-opacity="0.86"/>
<stop offset="1" stop-color="#A37C36"/>
</linearGradient>
</defs>
</svg>
