<svg width="71" height="64" viewBox="0 0 71 64" fill="none" xmlns="http://www.w3.org/2000/svg">
<path d="M57.1043 0.116051C56.0916 0.355159 55.515 0.664592 54.7976 1.39598C53.8975 2.28208 53.5318 3.16819 53.4755 4.50438C53.4052 5.92496 53.7568 6.93765 54.657 7.93628C55.5994 8.99117 56.5839 9.41312 58.0889 9.42719C59.1016 9.42719 59.411 9.37092 60.0721 9.06149C61.141 8.55515 61.9427 7.79563 62.4069 6.85326C62.7585 6.15 62.8007 5.89683 62.8007 4.71536C62.8007 3.46356 62.7726 3.32291 62.3084 2.479C61.2957 0.608332 59.186 -0.3481 57.1043 0.116051ZM59.3407 2.23989C61.2676 3.23852 61.4223 5.78431 59.6501 7.03611C59.1438 7.38774 58.9187 7.45806 58.1592 7.45806C57.3997 7.45806 57.1887 7.4018 56.6542 7.03611C55.4587 6.1922 55.093 4.78568 55.7119 3.49169C56.3448 2.16956 58.0608 1.57883 59.3407 2.23989Z" fill="#8A5C2A"/>
<path d="M57.1043 0.116051C56.0916 0.355159 55.515 0.664592 54.7976 1.39598C53.8975 2.28208 53.5318 3.16819 53.4755 4.50438C53.4052 5.92496 53.7568 6.93765 54.657 7.93628C55.5994 8.99117 56.5839 9.41312 58.0889 9.42719C59.1016 9.42719 59.411 9.37092 60.0721 9.06149C61.141 8.55515 61.9427 7.79563 62.4069 6.85326C62.7585 6.15 62.8007 5.89683 62.8007 4.71536C62.8007 3.46356 62.7726 3.32291 62.3084 2.479C61.2957 0.608332 59.186 -0.3481 57.1043 0.116051ZM59.3407 2.23989C61.2676 3.23852 61.4223 5.78431 59.6501 7.03611C59.1438 7.38774 58.9187 7.45806 58.1592 7.45806C57.3997 7.45806 57.1887 7.4018 56.6542 7.03611C55.4587 6.1922 55.093 4.78568 55.7119 3.49169C56.3448 2.16956 58.0608 1.57883 59.3407 2.23989Z" fill="url(#paint0_linear_97_7265)"/>
<path d="M25.7968 9.04743C23.9121 9.83507 22.9276 11.2275 22.815 13.2248C22.7728 14.139 22.815 14.5047 23.0682 15.1517C23.462 16.2066 24.4185 17.2615 25.4312 17.7538C26.1344 18.0913 26.4017 18.1476 27.4987 18.1476C28.5958 18.1476 28.8631 18.0913 29.5522 17.7538C30.6071 17.2474 31.5214 16.2488 31.9293 15.1798C32.3653 14.0265 32.2809 12.4231 31.7323 11.3541C31.2682 10.4539 30.4524 9.6241 29.5663 9.18808C28.6802 8.75206 26.6548 8.68173 25.7968 9.04743ZM28.5958 10.9603C29.1444 11.1994 29.8898 11.9589 30.0867 12.4934C30.4524 13.4639 30.143 14.786 29.3694 15.5033C28.3426 16.4598 26.6548 16.4598 25.6281 15.5033C24.8545 14.786 24.5451 13.4639 24.9107 12.4934C25.1077 11.973 25.839 11.1994 26.3735 10.9603C26.9221 10.7212 28.0191 10.7071 28.5958 10.9603Z" fill="#8A5C2A"/>
<path d="M25.7968 9.04743C23.9121 9.83507 22.9276 11.2275 22.815 13.2248C22.7728 14.139 22.815 14.5047 23.0682 15.1517C23.462 16.2066 24.4185 17.2615 25.4312 17.7538C26.1344 18.0913 26.4017 18.1476 27.4987 18.1476C28.5958 18.1476 28.8631 18.0913 29.5522 17.7538C30.6071 17.2474 31.5214 16.2488 31.9293 15.1798C32.3653 14.0265 32.2809 12.4231 31.7323 11.3541C31.2682 10.4539 30.4524 9.6241 29.5663 9.18808C28.6802 8.75206 26.6548 8.68173 25.7968 9.04743ZM28.5958 10.9603C29.1444 11.1994 29.8898 11.9589 30.0867 12.4934C30.4524 13.4639 30.143 14.786 29.3694 15.5033C28.3426 16.4598 26.6548 16.4598 25.6281 15.5033C24.8545 14.786 24.5451 13.4639 24.9107 12.4934C25.1077 11.973 25.839 11.1994 26.3735 10.9603C26.9221 10.7212 28.0191 10.7071 28.5958 10.9603Z" fill="url(#paint1_linear_97_7265)"/>
<path d="M52.2095 9.17397C51.8719 9.4834 47.4273 15.4611 47.2445 15.8831C46.9069 16.6144 47.7508 17.4162 48.5104 17.0927C48.7354 16.9942 49.734 15.7987 50.9858 14.1108C54.2349 9.76471 54.1505 9.91942 53.5176 9.28649C53.1237 8.8786 52.6033 8.83641 52.2095 9.17397Z" fill="#8A5C2A"/>
<path d="M52.2095 9.17397C51.8719 9.4834 47.4273 15.4611 47.2445 15.8831C46.9069 16.6144 47.7508 17.4162 48.5104 17.0927C48.7354 16.9942 49.734 15.7987 50.9858 14.1108C54.2349 9.76471 54.1505 9.91942 53.5176 9.28649C53.1237 8.8786 52.6033 8.83641 52.2095 9.17397Z" fill="url(#paint2_linear_97_7265)"/>
<path d="M33.5023 16.052C33.1929 16.263 33.0944 16.8115 33.2773 17.3038C33.3335 17.4304 33.9383 17.8101 34.6275 18.1617C36.1184 18.9072 36.7795 18.9635 37.117 18.3305C37.5109 17.6413 37.2296 17.2475 35.7949 16.5021C34.4306 15.7847 33.9946 15.7003 33.5023 16.052Z" fill="#8A5C2A"/>
<path d="M33.5023 16.052C33.1929 16.263 33.0944 16.8115 33.2773 17.3038C33.3335 17.4304 33.9383 17.8101 34.6275 18.1617C36.1184 18.9072 36.7795 18.9635 37.117 18.3305C37.5109 17.6413 37.2296 17.2475 35.7949 16.5021C34.4306 15.7847 33.9946 15.7003 33.5023 16.052Z" fill="url(#paint3_linear_97_7265)"/>
<path d="M53.0256 16.5582C52.2943 16.938 51.9286 17.4021 51.7598 18.1616C51.6754 18.4711 51.6191 27.1071 51.6191 38.4295V58.163H50.4236H49.2281V45.4199C49.2281 31.1297 49.2984 32.044 48.2013 31.3266L47.6246 30.9469H42.8284H38.0322L37.4555 31.3266C36.3584 32.044 36.4288 31.1297 36.4288 45.4199V58.163H35.1629H33.897V41.2285V24.3081L33.5735 23.844C33.4048 23.5908 33.0812 23.2392 32.8703 23.0845C32.4764 22.8032 32.3217 22.7891 27.4974 22.7891C22.673 22.7891 22.5183 22.8032 22.1245 23.0845C21.9135 23.2392 21.59 23.5908 21.4212 23.844L21.0977 24.3081V41.2285V58.163H19.9022H18.7067V48.6971C18.6926 43.5071 18.6363 38.964 18.5801 38.6265C18.4254 37.8247 18.0597 37.3465 17.3001 36.9527C16.6953 36.6573 16.5688 36.6433 12.1664 36.6433C7.13103 36.6433 6.84973 36.6995 6.1746 37.6419L5.83704 38.1201L5.79485 48.1345L5.76671 58.1348L3.89605 58.1911C1.67375 58.2474 1.08302 58.4724 0.40789 59.5273C0.0703258 60.0899 0 60.329 0 61.1026C0 62.27 0.421955 63.0576 1.37839 63.6062L2.03945 64H35.1629H68.2863L68.9474 63.6062C69.8898 63.0576 70.3258 62.27 70.3258 61.1166C70.3258 59.9633 69.8898 59.1757 68.9474 58.6271C68.3285 58.2614 68.1598 58.2333 66.4297 58.1911L64.5591 58.1348L64.5309 37.9091C64.4887 17.7397 64.4887 17.6694 64.1934 17.2755C64.0387 17.0646 63.6308 16.7411 63.2932 16.5582C62.6884 16.2629 62.5618 16.2488 58.1594 16.2488C53.757 16.2488 53.6304 16.2629 53.0256 16.5582ZM62.5618 38.2186L62.59 58.163H58.0891H53.5882V38.4577C53.5882 25.0536 53.6304 18.668 53.7289 18.4851C53.8696 18.2179 54.0383 18.2179 58.2016 18.246L62.5196 18.2882L62.5618 38.2186ZM31.9279 24.9551C32.0264 25.138 32.0686 30.6234 32.0686 41.6927V58.163H27.4974H22.9262V41.6927C22.9262 30.6234 22.9684 25.138 23.0669 24.9551C23.2075 24.7019 23.4044 24.6879 27.4974 24.6879C31.5903 24.6879 31.7873 24.7019 31.9279 24.9551ZM47.1183 32.9863C47.3011 33.0988 47.3293 34.6882 47.3715 45.645L47.3996 58.163H42.8284H38.2572V45.7294C38.2572 34.6038 38.2854 33.2676 38.4823 33.0707C38.6651 32.8738 39.2559 32.8457 42.8003 32.8457C45.1492 32.8457 46.9917 32.9019 47.1183 32.9863ZM16.5125 38.8374C16.7094 39.0343 16.7375 40.1174 16.7375 48.6127V58.163H12.2367H7.73584V48.4721C7.73584 40.8487 7.77803 38.7671 7.91868 38.7108C8.00307 38.6686 9.93 38.6265 12.1945 38.6265C15.7389 38.6124 16.3296 38.6405 16.5125 38.8374ZM67.8644 60.3009C68.2582 60.4837 68.427 60.9338 68.3004 61.4401C68.2582 61.623 68.0613 61.848 67.8644 61.9324C67.344 62.1715 2.98181 62.1715 2.4614 61.9324C1.82847 61.6511 1.81441 60.5962 2.41921 60.3009C2.89742 60.0758 67.358 60.0618 67.8644 60.3009Z" fill="#8A5C2A"/>
<path d="M53.0256 16.5582C52.2943 16.938 51.9286 17.4021 51.7598 18.1616C51.6754 18.4711 51.6191 27.1071 51.6191 38.4295V58.163H50.4236H49.2281V45.4199C49.2281 31.1297 49.2984 32.044 48.2013 31.3266L47.6246 30.9469H42.8284H38.0322L37.4555 31.3266C36.3584 32.044 36.4288 31.1297 36.4288 45.4199V58.163H35.1629H33.897V41.2285V24.3081L33.5735 23.844C33.4048 23.5908 33.0812 23.2392 32.8703 23.0845C32.4764 22.8032 32.3217 22.7891 27.4974 22.7891C22.673 22.7891 22.5183 22.8032 22.1245 23.0845C21.9135 23.2392 21.59 23.5908 21.4212 23.844L21.0977 24.3081V41.2285V58.163H19.9022H18.7067V48.6971C18.6926 43.5071 18.6363 38.964 18.5801 38.6265C18.4254 37.8247 18.0597 37.3465 17.3001 36.9527C16.6953 36.6573 16.5688 36.6433 12.1664 36.6433C7.13103 36.6433 6.84973 36.6995 6.1746 37.6419L5.83704 38.1201L5.79485 48.1345L5.76671 58.1348L3.89605 58.1911C1.67375 58.2474 1.08302 58.4724 0.40789 59.5273C0.0703258 60.0899 0 60.329 0 61.1026C0 62.27 0.421955 63.0576 1.37839 63.6062L2.03945 64H35.1629H68.2863L68.9474 63.6062C69.8898 63.0576 70.3258 62.27 70.3258 61.1166C70.3258 59.9633 69.8898 59.1757 68.9474 58.6271C68.3285 58.2614 68.1598 58.2333 66.4297 58.1911L64.5591 58.1348L64.5309 37.9091C64.4887 17.7397 64.4887 17.6694 64.1934 17.2755C64.0387 17.0646 63.6308 16.7411 63.2932 16.5582C62.6884 16.2629 62.5618 16.2488 58.1594 16.2488C53.757 16.2488 53.6304 16.2629 53.0256 16.5582ZM62.5618 38.2186L62.59 58.163H58.0891H53.5882V38.4577C53.5882 25.0536 53.6304 18.668 53.7289 18.4851C53.8696 18.2179 54.0383 18.2179 58.2016 18.246L62.5196 18.2882L62.5618 38.2186ZM31.9279 24.9551C32.0264 25.138 32.0686 30.6234 32.0686 41.6927V58.163H27.4974H22.9262V41.6927C22.9262 30.6234 22.9684 25.138 23.0669 24.9551C23.2075 24.7019 23.4044 24.6879 27.4974 24.6879C31.5903 24.6879 31.7873 24.7019 31.9279 24.9551ZM47.1183 32.9863C47.3011 33.0988 47.3293 34.6882 47.3715 45.645L47.3996 58.163H42.8284H38.2572V45.7294C38.2572 34.6038 38.2854 33.2676 38.4823 33.0707C38.6651 32.8738 39.2559 32.8457 42.8003 32.8457C45.1492 32.8457 46.9917 32.9019 47.1183 32.9863ZM16.5125 38.8374C16.7094 39.0343 16.7375 40.1174 16.7375 48.6127V58.163H12.2367H7.73584V48.4721C7.73584 40.8487 7.77803 38.7671 7.91868 38.7108C8.00307 38.6686 9.93 38.6265 12.1945 38.6265C15.7389 38.6124 16.3296 38.6405 16.5125 38.8374ZM67.8644 60.3009C68.2582 60.4837 68.427 60.9338 68.3004 61.4401C68.2582 61.623 68.0613 61.848 67.8644 61.9324C67.344 62.1715 2.98181 62.1715 2.4614 61.9324C1.82847 61.6511 1.81441 60.5962 2.41921 60.3009C2.89742 60.0758 67.358 60.0618 67.8644 60.3009Z" fill="url(#paint4_linear_97_7265)"/>
<path d="M19.7341 17.7115C17.6384 19.4696 17.0195 20.1026 17.0195 20.4823C17.0195 21.059 17.3993 21.4528 17.9619 21.4528C18.3979 21.4528 18.6933 21.2418 20.3389 19.8213C21.4079 18.893 22.2658 18.0491 22.308 17.8662C22.3924 17.5427 22.1674 16.966 21.8861 16.7832C21.436 16.4738 20.9437 16.6988 19.7341 17.7115Z" fill="#8A5C2A"/>
<path d="M19.7341 17.7115C17.6384 19.4696 17.0195 20.1026 17.0195 20.4823C17.0195 21.059 17.3993 21.4528 17.9619 21.4528C18.3979 21.4528 18.6933 21.2418 20.3389 19.8213C21.4079 18.893 22.2658 18.0491 22.308 17.8662C22.3924 17.5427 22.1674 16.966 21.8861 16.7832C21.436 16.4738 20.9437 16.6988 19.7341 17.7115Z" fill="url(#paint5_linear_97_7265)"/>
<path d="M41.141 16.8817C40.1705 17.2474 39.2422 18.0632 38.6937 19.0477C38.2717 19.8213 38.2014 20.1167 38.1451 21.0872C38.1029 22.0014 38.1451 22.3812 38.3983 23.0282C38.7921 24.0831 39.7485 25.1379 40.7612 25.6302C41.4645 25.9678 41.7317 26.024 42.8288 26.024C43.9259 26.024 44.1931 25.9678 44.8964 25.6302C45.9091 25.1379 46.8655 24.0831 47.2593 23.0282C47.6954 21.903 47.611 20.2855 47.0624 19.2306C46.5983 18.3304 45.7825 17.5006 44.8964 17.0645C44.0665 16.6567 42.0271 16.5582 41.141 16.8817Z" fill="#8A5C2A"/>
<path d="M41.141 16.8817C40.1705 17.2474 39.2422 18.0632 38.6937 19.0477C38.2717 19.8213 38.2014 20.1167 38.1451 21.0872C38.1029 22.0014 38.1451 22.3812 38.3983 23.0282C38.7921 24.0831 39.7485 25.1379 40.7612 25.6302C41.4645 25.9678 41.7317 26.024 42.8288 26.024C43.9259 26.024 44.1931 25.9678 44.8964 25.6302C45.9091 25.1379 46.8655 24.0831 47.2593 23.0282C47.6954 21.903 47.611 20.2855 47.0624 19.2306C46.5983 18.3304 45.7825 17.5006 44.8964 17.0645C44.0665 16.6567 42.0271 16.5582 41.141 16.8817Z" fill="url(#paint6_linear_97_7265)"/>
<path d="M11.1101 20.5246C10.0974 20.7497 9.52069 21.0591 8.80337 21.7764C7.83287 22.761 7.52344 23.5487 7.52344 25.1099C7.52344 26.221 7.5797 26.5586 7.84694 27.0931C8.35328 28.1339 9.0706 28.8512 10.0974 29.3576C10.9272 29.7655 11.1663 29.8217 12.1649 29.8217C13.1636 29.8217 13.4027 29.7655 14.2325 29.3576C15.9485 28.5137 16.8768 27.0227 16.8768 25.1099C16.8768 22.8313 15.4562 21.0451 13.2339 20.5246C12.3056 20.2996 12.1227 20.2996 11.1101 20.5246Z" fill="#8A5C2A"/>
<path d="M11.1101 20.5246C10.0974 20.7497 9.52069 21.0591 8.80337 21.7764C7.83287 22.761 7.52344 23.5487 7.52344 25.1099C7.52344 26.221 7.5797 26.5586 7.84694 27.0931C8.35328 28.1339 9.0706 28.8512 10.0974 29.3576C10.9272 29.7655 11.1663 29.8217 12.1649 29.8217C13.1636 29.8217 13.4027 29.7655 14.2325 29.3576C15.9485 28.5137 16.8768 27.0227 16.8768 25.1099C16.8768 22.8313 15.4562 21.0451 13.2339 20.5246C12.3056 20.2996 12.1227 20.2996 11.1101 20.5246Z" fill="url(#paint7_linear_97_7265)"/>
<defs>
<linearGradient id="paint0_linear_97_7265" x1="54.2923" y1="7.62624" x2="61.517" y2="1.59383" gradientUnits="userSpaceOnUse">
<stop stop-color="#8A5C2A"/>
<stop offset="0.514222" stop-color="#C2A650" stop-opacity="0.81"/>
<stop offset="0.619294" stop-color="#D1BA5A" stop-opacity="0.92"/>
<stop offset="0.697308" stop-color="#C8AD53" stop-opacity="0.86"/>
<stop offset="1" stop-color="#A37C36"/>
</linearGradient>
<linearGradient id="paint1_linear_97_7265" x1="23.6327" y1="16.3641" x2="30.8086" y2="10.2665" gradientUnits="userSpaceOnUse">
<stop stop-color="#8A5C2A"/>
<stop offset="0.514222" stop-color="#C2A650" stop-opacity="0.81"/>
<stop offset="0.619294" stop-color="#D1BA5A" stop-opacity="0.92"/>
<stop offset="0.697308" stop-color="#C8AD53" stop-opacity="0.86"/>
<stop offset="1" stop-color="#A37C36"/>
</linearGradient>
<linearGradient id="paint2_linear_97_7265" x1="47.7603" y1="15.5963" x2="53.7362" y2="11.4896" gradientUnits="userSpaceOnUse">
<stop stop-color="#8A5C2A"/>
<stop offset="0.514222" stop-color="#C2A650" stop-opacity="0.81"/>
<stop offset="0.619294" stop-color="#D1BA5A" stop-opacity="0.92"/>
<stop offset="0.697308" stop-color="#C8AD53" stop-opacity="0.86"/>
<stop offset="1" stop-color="#A37C36"/>
</linearGradient>
<linearGradient id="paint3_linear_97_7265" x1="33.5476" y1="18.2095" x2="35.7866" y2="15.5586" gradientUnits="userSpaceOnUse">
<stop stop-color="#8A5C2A"/>
<stop offset="0.514222" stop-color="#C2A650" stop-opacity="0.81"/>
<stop offset="0.619294" stop-color="#D1BA5A" stop-opacity="0.92"/>
<stop offset="0.697308" stop-color="#C8AD53" stop-opacity="0.86"/>
<stop offset="1" stop-color="#A37C36"/>
</linearGradient>
<linearGradient id="paint4_linear_97_7265" x1="6.21985" y1="54.8777" x2="42.5548" y2="9.74968" gradientUnits="userSpaceOnUse">
<stop stop-color="#8A5C2A"/>
<stop offset="0.514222" stop-color="#C2A650" stop-opacity="0.81"/>
<stop offset="0.619294" stop-color="#D1BA5A" stop-opacity="0.92"/>
<stop offset="0.697308" stop-color="#C8AD53" stop-opacity="0.86"/>
<stop offset="1" stop-color="#A37C36"/>
</linearGradient>
<linearGradient id="paint5_linear_97_7265" x1="17.4889" y1="20.5361" x2="21.2171" y2="17.0592" gradientUnits="userSpaceOnUse">
<stop stop-color="#8A5C2A"/>
<stop offset="0.514222" stop-color="#C2A650" stop-opacity="0.81"/>
<stop offset="0.619294" stop-color="#D1BA5A" stop-opacity="0.92"/>
<stop offset="0.697308" stop-color="#C8AD53" stop-opacity="0.86"/>
<stop offset="1" stop-color="#A37C36"/>
</linearGradient>
<linearGradient id="paint6_linear_97_7265" x1="38.9628" y1="24.2407" x2="46.1384" y2="18.143" gradientUnits="userSpaceOnUse">
<stop stop-color="#8A5C2A"/>
<stop offset="0.514222" stop-color="#C2A650" stop-opacity="0.81"/>
<stop offset="0.619294" stop-color="#D1BA5A" stop-opacity="0.92"/>
<stop offset="0.697308" stop-color="#C8AD53" stop-opacity="0.86"/>
<stop offset="1" stop-color="#A37C36"/>
</linearGradient>
<linearGradient id="paint7_linear_97_7265" x1="8.35068" y1="28.0134" x2="15.6024" y2="21.9706" gradientUnits="userSpaceOnUse">
<stop stop-color="#8A5C2A"/>
<stop offset="0.514222" stop-color="#C2A650" stop-opacity="0.81"/>
<stop offset="0.619294" stop-color="#D1BA5A" stop-opacity="0.92"/>
<stop offset="0.697308" stop-color="#C8AD53" stop-opacity="0.86"/>
<stop offset="1" stop-color="#A37C36"/>
</linearGradient>
</defs>
</svg>
